<?xml version="1.0" standalone="no"?>
<!DOCTYPE svg PUBLIC "-//W3C//DTD SVG 20010904//EN"
 "http://www.w3.org/TR/2001/REC-SVG-20010904/DTD/svg10.dtd">
<svg version="1.0" xmlns="http://www.w3.org/2000/svg"
 width="800.000000pt" height="492.000000pt" viewBox="0 0 800.000000 492.000000"
 preserveAspectRatio="xMidYMid meet">

<g transform="translate(0.000000,492.000000) scale(0.100000,-0.100000)"
fill="#a9a9b2" stroke="none">
<path d="M5843 4885 c-37 -16 -201 -124 -259 -171 l-42 -34 -182 -2 -182 -3 1
-345 c1 -189 4 -346 7 -349 2 -2 367 -7 812 -11 865 -8 859 -7 961 -60 118
-59 163 -204 111 -354 -27 -79 -52 -110 -121 -151 -126 -73 -138 -75 -542 -78
-199 -1 -704 2 -1123 7 l-761 9 -9 30 c-5 17 -21 39 -35 49 -24 18 -47 19
-409 18 -250 0 -388 -4 -396 -11 -7 -6 -14 -25 -16 -42 -2 -23 -9 -33 -23 -35
-59 -9 -67 -14 -86 -57 -15 -35 -26 -45 -52 -50 -44 -10 -58 -25 -92 -95 -16
-33 -31 -60 -35 -60 -3 0 -41 35 -85 78 -85 82 -170 132 -225 132 -45 0 -80
-38 -80 -89 0 -38 4 -43 79 -101 96 -74 122 -126 100 -199 -17 -58 -37 -71
-128 -85 -87 -14 -127 -38 -133 -80 -3 -21 -8 -21 -283 -28 -325 -8 -441 -19
-499 -47 -25 -12 -127 -105 -257 -233 -218 -215 -317 -322 -403 -435 -26 -36
-57 -65 -69 -67 -148 -28 -748 -34 -1031 -10 -102 8 -209 14 -238 12 -45 -3
-53 -6 -53 -23 0 -18 9 -21 95 -26 52 -3 174 -12 271 -19 171 -12 738 -8 884
6 54 6 58 5 46 -10 -8 -9 -11 -19 -8 -22 14 -14 76 37 135 111 82 103 284 335
292 335 3 0 75 70 160 156 85 85 172 164 192 175 60 31 154 40 479 46 294 6
419 1 419 -17 0 -4 -15 -11 -32 -14 -36 -7 -129 -72 -136 -96 -3 -8 13 0 34
17 59 46 99 63 149 63 42 0 47 -3 68 -37 36 -61 126 -297 117 -307 -12 -13
-119 -36 -167 -36 -23 0 -44 -4 -47 -8 -7 -12 11 -137 29 -199 23 -79 35 -87
123 -80 49 4 91 14 123 30 46 23 49 23 49 5 0 -30 -37 -95 -67 -116 -125 -89
-293 -24 -395 151 -78 135 -103 232 -85 332 7 36 6 38 -7 22 -20 -25 -28 -97
-17 -146 5 -22 5 -43 0 -46 -23 -15 -76 143 -58 176 11 22 12 42 0 35 -23 -15
-17 -106 14 -202 9 -28 -26 -41 -137 -50 -91 -7 -185 11 -246 47 -37 21 -46
24 -37 9 8 -13 92 -55 127 -64 16 -3 28 -10 28 -14 0 -4 -36 -77 -81 -162 -45
-85 -108 -211 -140 -279 -104 -219 -198 -340 -308 -396 -57 -28 -65 -39 -23
-29 43 11 73 29 125 74 26 23 50 40 52 38 3 -2 -20 -61 -49 -130 -119 -274
-196 -520 -196 -622 0 -16 -6 -26 -15 -26 -11 0 -15 -10 -14 -37 0 -21 3 -32
6 -25 9 23 23 12 23 -18 0 -16 -4 -30 -10 -30 -5 0 -10 -16 -10 -35 0 -25 4
-33 14 -29 13 5 26 -22 26 -54 0 -31 -151 35 -251 109 -115 85 -180 99 -358
79 -227 -26 -509 -42 -831 -48 -263 -5 -354 -10 -357 -19 -8 -23 52 -28 317
-27 271 2 652 21 955 50 97 9 135 -4 262 -90 102 -68 208 -116 256 -116 11 0
44 -23 73 -50 104 -98 276 -151 560 -171 333 -24 504 25 580 168 l31 58 84 6
c136 9 218 57 263 152 43 93 43 200 -2 250 -14 16 -13 21 25 60 68 69 91 193
58 303 -8 27 -15 54 -15 59 0 6 22 28 50 49 34 26 57 55 75 92 l26 55 46 -41
c26 -22 80 -57 122 -78 74 -37 76 -37 195 -37 88 0 137 5 181 18 95 29 240
105 294 153 78 70 163 215 227 387 18 49 40 97 49 107 21 23 77 37 188 45 149
12 172 43 228 308 34 162 53 226 82 280 26 47 54 65 119 77 28 6 59 17 68 25
13 12 90 15 460 20 696 9 902 25 1133 85 136 35 318 107 390 154 84 53 195
153 244 220 61 82 148 263 173 360 27 106 35 290 21 449 -28 299 -126 489
-324 626 -144 100 -246 139 -452 177 -87 15 -529 32 -917 33 l-146 1 -6 28
c-3 15 -8 47 -12 71 -9 64 -49 101 -106 101 -24 -1 -57 -7 -75 -15z m77 -55
c0 -5 -3 -10 -8 -10 -4 0 -57 -29 -117 -65 -99 -59 -145 -79 -131 -57 7 11
183 118 216 131 33 13 40 13 40 1z m1107 -256 c196 -27 406 -109 528 -206 130
-103 213 -256 246 -452 19 -111 7 -314 -24 -406 l-26 -75 6 135 c11 251 -23
417 -114 567 -89 145 -176 215 -367 292 -219 90 -278 94 -1246 97 l-785 2 -3
31 -3 31 834 0 c716 0 852 -2 954 -16z m341 -23 c3 -8 -1 -12 -9 -9 -7 2 -15
10 -17 17 -3 8 1 12 9 9 7 -2 15 -10 17 -17z m87 -22 c10 -15 -1 -23 -20 -15
-9 3 -13 10 -10 16 8 13 22 13 30 -1z m-1498 -72 c-5 -15 -20 -18 -37 -7 -13
9 -13 11 -1 19 17 11 43 3 38 -12z m-442 -1 c19 -13 18 -15 -17 -21 -46 -9
-244 -3 -254 8 -18 18 27 27 137 27 83 0 120 -4 134 -14z m255 -7 c0 -5 -9 -9
-20 -9 -19 0 -26 11 -14 23 8 8 34 -3 34 -14z m298 9 c-3 -7 -15 -13 -28 -13
-13 0 -25 6 -27 13 -3 8 6 12 27 12 21 0 30 -4 28 -12z m735 -7 c15 -6 27 -15
27 -21 0 -8 -36 -9 -117 -4 -65 3 -199 9 -297 13 -140 5 -180 9 -184 20 -4 12
38 13 269 9 162 -3 285 -10 302 -17z m-1123 -1 c0 -5 -13 -10 -30 -10 -16 0
-30 5 -30 10 0 6 14 10 30 10 17 0 30 -4 30 -10z m1339 -11 c32 -11 40 -24 19
-32 -20 -7 -122 4 -133 15 -26 24 57 37 114 17z m131 -49 c0 -13 -37 -13 -45
0 -3 6 -3 15 0 20 7 12 45 -5 45 -20z m-1112 -277 l3 -23 -394 0 c-333 0 -396
2 -407 15 -6 8 -9 19 -5 25 4 7 133 9 403 8 l397 -3 3 -22z m396 7 c23 -22
-11 -30 -134 -30 -131 0 -154 6 -129 36 11 14 31 15 134 9 66 -4 124 -11 129
-15z m326 -10 c74 -5 156 -16 181 -25 57 -20 129 -79 129 -107 0 -20 0 -20
-32 2 -18 12 -61 35 -96 52 -58 28 -76 31 -237 42 -114 7 -179 16 -187 24 -20
20 4 30 60 25 26 -1 108 -7 182 -13z m-1354 -51 c11 -19 -18 -29 -88 -29 -53
0 -68 3 -68 14 0 14 14 17 122 24 15 1 30 -3 34 -9z m2234 -21 c24 -39 25 -58
5 -58 -16 0 -55 55 -55 78 0 24 31 12 50 -20z m-2130 12 c0 -5 -9 -10 -20 -10
-11 0 -20 5 -20 10 0 6 9 10 20 10 11 0 20 -4 20 -10z m1064 -16 c22 -9 20
-24 -3 -24 -21 0 -34 13 -24 24 8 7 8 7 27 0z m192 -18 c18 -14 18 -15 1 -21
-16 -7 -83 1 -100 12 -4 2 -5 9 -2 14 9 14 79 11 101 -5z m118 -6 c33 -12 34
-30 2 -30 -35 0 -56 10 -56 26 0 16 19 18 54 4z m106 -46 c0 -8 -5 -12 -10 -9
-6 4 -8 11 -5 16 9 14 15 11 15 -7z m163 -81 c30 -34 57 -138 57 -220 0 -92
-28 -179 -83 -266 -28 -43 -55 -69 -113 -107 -95 -62 -174 -87 -174 -56 0 8
26 24 60 38 85 33 145 80 190 149 57 89 75 149 74 249 0 62 -6 100 -22 140
-23 58 -28 90 -14 90 5 0 16 -8 25 -17z m-13 -251 c0 -13 -12 -22 -22 -16 -10
6 -1 24 13 24 5 0 9 -4 9 -8z m107 -147 c-9 -62 -45 -142 -75 -165 -48 -38
-57 -17 -16 37 22 30 61 107 77 156 12 33 20 17 14 -28z m-209 -66 c-3 -23
-33 -48 -44 -37 -7 7 27 57 39 58 5 0 7 -10 5 -21z m-2584 -30 c17 -13 26 -29
24 -42 -4 -30 -23 -31 -36 -2 l-12 25 -352 -2 -353 -3 -3 -23 c-2 -16 -9 -22
-20 -20 -21 4 -21 66 -1 79 8 4 174 8 370 8 347 1 358 0 383 -20z m2514 -41
c-6 -20 -78 -52 -89 -41 -7 7 1 17 23 31 38 23 72 28 66 10z m676 -24 c8 -20
-21 -67 -37 -61 -21 7 0 77 23 77 4 0 11 -7 14 -16z m-806 -30 c-9 -10 -24
-14 -33 -10 -23 9 -9 26 23 26 24 0 25 -1 10 -16z m692 -12 c0 -31 -32 -68
-49 -57 -13 7 23 85 39 85 6 0 10 -13 10 -28z m-795 -2 c-3 -5 -13 -10 -21
-10 -8 0 -14 5 -14 10 0 6 9 10 21 10 11 0 17 -4 14 -10z m-3100 -20 c4 -7
243 -10 686 -10 446 0 679 -3 679 -10 0 -7 -235 -10 -684 -10 -392 0 -687 -4
-690 -9 -5 -8 153 -26 179 -21 23 5 28 -1 12 -12 -16 -12 -17 -53 -20 -480 -2
-372 1 -470 11 -480 10 -10 119 -14 524 -16 314 -1 515 1 521 7 6 6 9 132 8
312 -1 210 2 306 10 315 9 11 57 14 219 14 115 0 215 -3 224 -6 13 -5 16 -26
16 -128 l0 -121 -47 -35 c-67 -51 -94 -113 -144 -335 -23 -104 -50 -209 -60
-232 -21 -48 -42 -57 -174 -68 -142 -11 -199 -51 -225 -157 -12 -48 -41 -88
-64 -88 -23 0 -36 25 -46 85 -17 107 -87 183 -197 216 -24 7 -43 16 -43 20 0
5 157 6 349 3 240 -3 351 -2 356 5 4 8 -212 10 -722 9 -400 -2 -625 -4 -498
-5 126 -2 233 -7 237 -11 5 -5 -38 -22 -94 -38 -129 -36 -211 -88 -246 -156
-20 -38 -24 -63 -25 -132 l-1 -86 -54 0 c-35 0 -51 4 -47 11 4 6 23 9 42 7
l36 -3 2 80 c2 44 4 87 6 95 3 12 -7 15 -50 16 -75 1 -82 24 -8 24 53 0 57 2
113 55 l57 56 -108 -3 -108 -3 -23 -70 c-48 -143 -76 -215 -85 -215 -14 0 -11
25 12 77 33 74 68 192 75 250 13 105 -44 186 -178 252 l-73 36 -37 90 c-21 50
-37 93 -38 98 0 4 15 0 33 -9 26 -14 64 -17 212 -18 l180 -1 3 122 c2 116 2
123 -19 133 -14 8 -78 11 -199 8 -171 -3 -179 -4 -203 -26 -14 -13 -31 -37
-37 -53 -7 -16 -15 -29 -19 -29 -3 0 -16 18 -29 40 -12 22 -34 47 -47 56 -33
22 -25 30 32 32 125 5 200 34 244 94 34 48 108 192 179 351 49 108 69 133 85
107z m-605 -50 c0 -32 -14 -40 -24 -15 -6 18 2 45 15 45 5 0 9 -13 9 -30z
m3717 -5 c-30 -22 -226 -30 -667 -28 -429 2 -675 12 -675 27 0 5 264 10 600
12 330 2 632 7 670 11 75 9 102 1 72 -22z m-3278 -25 c-21 -43 -45 -56 -33
-17 7 24 33 57 45 57 4 0 -2 -18 -12 -40z m51 20 c0 -5 -4 -10 -10 -10 -5 0
-10 5 -10 10 0 6 5 10 10 10 6 0 10 -4 10 -10z m-362 -94 c27 -24 52 -68 52
-91 0 -27 -16 -16 -28 20 -13 35 -47 68 -101 97 -17 9 -31 22 -31 28 0 13 77
-25 108 -54z m1666 58 c23 -9 24 -224 1 -224 -11 0 -15 20 -17 98 l-3 97 -465
0 -465 0 -5 -95 c-4 -76 -8 -95 -20 -95 -12 0 -16 19 -18 99 -1 55 0 106 2
113 4 10 98 13 490 13 266 0 491 -3 500 -6z m-1324 -13 c0 -6 -4 -13 -10 -16
-5 -3 -10 1 -10 9 0 9 5 16 10 16 6 0 10 -4 10 -9z m1825 -101 l0 -105 -226
-3 -226 -2 -5 57 c-3 32 -3 82 -1 111 l6 52 226 -2 226 -3 0 -105z m1270 50
c0 -10 -12 -16 -34 -18 -39 -4 -64 13 -41 29 23 14 75 7 75 -11z m-3165 1 c0
-6 -4 -13 -10 -16 -5 -3 -10 1 -10 9 0 9 5 16 10 16 6 0 10 -4 10 -9z m1340
-1 c0 -6 -109 -10 -308 -10 -256 0 -311 -2 -329 -15 -14 -10 -19 -22 -16 -35
5 -18 -1 -19 -88 -22 -64 -2 -94 -7 -97 -16 -3 -10 80 -12 417 -10 l421 3 0
-57 0 -58 -295 0 c-194 0 -302 -4 -318 -11 -50 -23 -57 -96 -13 -122 15 -8
109 -13 324 -15 l302 -4 0 -94 0 -94 -314 0 c-314 0 -315 0 -330 -22 -21 -30
-20 -51 3 -79 l19 -24 309 -5 308 -5 0 -45 0 -45 -432 -3 -433 -2 0 400 0 400
435 0 c283 0 435 -3 435 -10z m1681 0 c25 -14 24 -27 -1 -35 -26 -8 -60 3 -60
20 0 23 31 30 61 15z m-1053 -247 c-2 -178 -6 -237 -15 -241 -10 -3 -13 49
-13 237 0 209 2 241 15 241 13 0 15 -31 13 -237z m-633 207 c4 -7 -100 -10
-304 -10 -201 0 -311 4 -311 10 0 6 108 10 304 10 193 0 307 -4 311 -10z
m-1545 -104 c0 -8 -4 -18 -10 -21 -5 -3 -10 3 -10 14 0 12 5 21 10 21 6 0 10
-6 10 -14z m2840 -6 c36 -24 -23 -30 -307 -30 -282 0 -315 3 -298 30 8 13 585
13 605 0z m123 3 c9 -8 -12 -33 -27 -33 -20 0 -39 17 -32 29 8 12 49 15 59 4z
m112 -3 c3 -6 -1 -13 -10 -16 -19 -8 -30 0 -20 15 8 14 22 14 30 1z m945 -28
c0 -21 -180 -81 -300 -101 -215 -36 -349 -43 -921 -48 -516 -5 -557 -4 -573
12 -9 10 -16 25 -14 34 3 15 68 17 718 22 774 6 856 11 1006 63 79 28 84 29
84 18z m-4030 -21 c0 -6 -4 -13 -10 -16 -5 -3 -10 1 -10 9 0 9 5 16 10 16 6 0
10 -4 10 -9z m-175 -101 c4 -6 -7 -13 -24 -16 -17 -4 -36 -13 -42 -20 -6 -8
-18 -14 -27 -14 -12 0 -12 4 4 21 30 33 77 49 89 29z m571 -187 c-11 -11 -19
6 -11 24 8 17 8 17 12 0 3 -10 2 -21 -1 -24z m-76 6 c0 -5 -7 -9 -15 -9 -15 0
-20 12 -9 23 8 8 24 -1 24 -14z m40 -4 c0 -14 0 -28 1 -32 0 -4 -4 -9 -10 -11
-7 -2 -11 11 -11 32 0 20 5 36 10 36 6 0 10 -11 10 -25z m-105 5 c-3 -5 -10
-10 -16 -10 -5 0 -9 5 -9 10 0 6 7 10 16 10 8 0 12 -4 9 -10z m393 -155 c-4
-115 -3 -169 6 -180 10 -13 64 -15 471 -13 l460 3 5 169 c4 123 8 171 18 174
9 3 12 -39 12 -187 l0 -191 -495 0 -494 0 -12 21 c-8 16 -9 71 -4 195 6 147
10 174 23 174 13 0 14 -21 10 -165z m-513 145 c7 -11 -64 -79 -82 -80 -31 0
-7 71 27 83 24 9 48 8 55 -3z m35 -42 c0 -29 -9 -42 -37 -57 -27 -14 -53 -14
-53 -1 0 11 71 79 83 80 4 0 7 -10 7 -22z m150 2 c0 -5 -4 -10 -10 -10 -5 0
-10 5 -10 10 0 6 5 10 10 10 6 0 10 -4 10 -10z m85 -30 c0 -13 -6 -25 -12 -27
-9 -3 -13 6 -13 27 0 21 4 30 13 28 6 -3 12 -15 12 -28z m-45 -20 c0 -5 -4
-10 -10 -10 -5 0 -10 5 -10 10 0 6 5 10 10 10 6 0 10 -4 10 -10z m-272 -364
c35 -74 43 -102 36 -114 -30 -50 -206 -92 -243 -58 -18 16 -48 127 -53 196
l-3 35 61 7 c34 5 79 14 100 22 21 8 43 14 48 12 5 -1 29 -46 54 -100z m104
15 c25 -16 58 -46 74 -67 26 -33 29 -45 29 -108 0 -60 -8 -90 -50 -200 -43
-112 -65 -149 -80 -134 -2 2 18 73 46 156 39 120 48 161 43 190 -8 45 -38 93
-75 118 -23 15 -49 52 -49 69 0 11 19 3 62 -24z m-634 -63 c-6 -23 -63 -118
-70 -118 -15 0 -8 23 23 76 27 49 55 73 47 42z m-57 -21 c-13 -13 -26 -3 -16
12 3 6 11 8 17 5 6 -4 6 -10 -1 -17z m-136 -129 c-243 -455 -418 -862 -492
-1147 -30 -118 -34 -147 -30 -218 6 -102 25 -137 97 -180 148 -89 475 -140
621 -97 38 11 65 28 90 55 40 43 59 49 59 19 0 -45 -84 -99 -184 -120 -139
-29 -463 30 -619 113 -85 44 -102 82 -101 212 2 247 177 720 479 1293 41 79
75 146 75 150 0 12 54 62 67 62 9 0 -15 -54 -62 -142z m-45 107 c0 -16 -27
-32 -37 -21 -7 7 16 36 28 36 5 0 9 -7 9 -15z m260 -20 c0 -8 -4 -15 -9 -15
-13 0 -22 16 -14 24 11 11 23 6 23 -9z m-120 -10 c0 -12 -60 -124 -69 -129 -5
-4 -12 -3 -15 2 -6 10 62 132 75 132 5 0 9 -2 9 -5z m130 -55 c-7 -16 -19 -30
-27 -30 -13 0 -14 3 -1 23 8 12 18 28 22 35 14 24 19 3 6 -28z m-40 25 c0 -15
-42 -85 -50 -85 -14 0 -13 5 10 50 17 34 40 53 40 35z m-280 -36 c-12 -22 -30
-25 -30 -6 0 17 21 38 32 31 4 -3 3 -14 -2 -25z m370 2 c0 -6 -4 -13 -10 -16
-5 -3 -10 1 -10 9 0 9 5 16 10 16 6 0 10 -4 10 -9z m-170 -19 c0 -13 -12 -22
-22 -16 -10 6 -1 24 13 24 5 0 9 -4 9 -8z m1641 -22 c95 -18 135 -85 133 -225
-1 -113 -43 -177 -130 -196 -48 -11 -56 -10 -100 12 -55 27 -103 97 -112 164
-4 29 -7 34 -12 20 -4 -10 -3 -37 1 -59 7 -42 5 -55 -8 -42 -4 4 -8 42 -8 84
0 60 5 86 22 117 31 58 115 134 149 135 6 0 35 -5 65 -10z m-1441 -14 c0 -8
-4 -17 -9 -21 -12 -7 -24 12 -16 25 9 15 25 12 25 -4z m-60 -16 c0 -5 -4 -10
-10 -10 -5 0 -10 5 -10 10 0 6 5 10 10 10 6 0 10 -4 10 -10z m1685 -45 c28
-45 30 -56 29 -134 -1 -121 -27 -183 -104 -254 -192 -178 -489 -194 -626 -33
-36 42 -80 145 -67 156 4 4 48 2 97 -4 l89 -11 22 -50 c36 -81 82 -110 157
-97 36 6 44 12 52 37 14 41 13 41 37 19 17 -15 36 -19 98 -19 100 0 135 20
176 100 27 54 30 67 29 154 -1 91 -4 107 -42 185 -3 5 2 6 9 4 8 -3 28 -26 44
-53z m-2065 30 c-7 -8 -16 -15 -21 -15 -5 0 -6 7 -3 15 4 8 13 15 21 15 13 0
13 -3 3 -15z m255 -5 c-3 -5 -10 -10 -16 -10 -5 0 -9 5 -9 10 0 6 7 10 16 10
8 0 12 -4 9 -10z m225 -4 c0 -15 -18 -31 -26 -23 -7 7 7 37 17 37 5 0 9 -6 9
-14z m975 -2 l38 -15 -9 -52 c-4 -29 -8 -83 -8 -122 -1 -40 -5 -70 -11 -70
-30 1 -159 17 -171 22 -19 7 -18 103 1 151 17 40 80 102 106 102 9 0 33 -7 54
-16z m95 -34 c0 -47 -19 -141 -31 -154 -17 -19 -20 25 -6 95 8 40 13 78 10 86
-3 7 2 13 11 13 12 0 16 -10 16 -40z m-1420 20 c0 -5 -5 -10 -11 -10 -5 0 -7
5 -4 10 3 6 8 10 11 10 2 0 4 -4 4 -10z m280 0 c0 -5 -4 -10 -10 -10 -5 0 -10
5 -10 10 0 6 5 10 10 10 6 0 10 -4 10 -10z m-120 -10 c0 -5 -4 -10 -10 -10 -5
0 -10 5 -10 10 0 6 5 10 10 10 6 0 10 -4 10 -10z m656 -17 c-10 -10 -19 5 -10
18 6 11 8 11 12 0 2 -7 1 -15 -2 -18z m-771 -3 c-3 -5 -10 -10 -16 -10 -5 0
-9 5 -9 10 0 6 7 10 16 10 8 0 12 -4 9 -10z m355 0 c0 -5 -4 -10 -10 -10 -5 0
-10 5 -10 10 0 6 5 10 10 10 6 0 10 -4 10 -10z m320 -5 c0 -8 -4 -15 -9 -15
-13 0 -22 16 -14 24 11 11 23 6 23 -9z m35 -4 c3 -5 1 -12 -5 -16 -5 -3 -10 1
-10 9 0 18 6 21 15 7z m-785 -26 c0 -8 -4 -15 -10 -15 -5 0 -10 7 -10 15 0 8
5 15 10 15 6 0 10 -7 10 -15z m110 6 c0 -12 -20 -25 -27 -18 -7 7 6 27 18 27
5 0 9 -4 9 -9z m566 -18 c-10 -10 -19 5 -10 18 6 11 8 11 12 0 2 -7 1 -15 -2
-18z m154 1 c0 -23 -20 -55 -30 -49 -9 6 10 65 22 65 4 0 8 -7 8 -16z m-269
-17 c-13 -13 -26 -3 -16 12 3 6 11 8 17 5 6 -4 6 -10 -1 -17z m69 14 c0 -12
-20 -25 -27 -18 -7 7 6 27 18 27 5 0 9 -4 9 -9z m90 -15 c0 -25 -12 -46 -26
-46 -17 0 -17 2 -2 35 12 27 28 33 28 11z m-69 -39 c-16 -16 -26 0 -10 19 9
11 15 12 17 4 2 -6 -1 -17 -7 -23z m109 23 c0 -5 -4 -10 -10 -10 -5 0 -10 5
-10 10 0 6 5 10 10 10 6 0 10 -4 10 -10z m-790 -16 c0 -8 -5 -12 -10 -9 -6 4
-8 11 -5 16 9 14 15 11 15 -7z m50 -9 c0 -8 -4 -15 -10 -15 -5 0 -10 7 -10 15
0 8 5 15 10 15 6 0 10 -7 10 -15z m410 -14 c-5 -11 -15 -23 -20 -26 -14 -9
-12 19 2 33 19 19 30 14 18 -7z m170 9 c0 -5 -4 -10 -10 -10 -5 0 -10 5 -10
10 0 6 5 10 10 10 6 0 10 -4 10 -10z m140 -13 c0 -18 -27 -53 -35 -46 -7 8 15
59 27 59 4 0 8 -6 8 -13z m-360 -6 c0 -12 -20 -25 -27 -18 -7 7 6 27 18 27 5
0 9 -4 9 -9z m100 0 c0 -12 -20 -25 -27 -18 -7 7 6 27 18 27 5 0 9 -4 9 -9z
m306 -38 c-5 -12 -10 -13 -18 -5 -8 8 -8 15 3 28 15 18 25 4 15 -23z m-111 18
c3 -5 1 -12 -5 -16 -5 -3 -10 1 -10 9 0 18 6 21 15 7z m-735 -11 c0 -16 -43
-100 -52 -100 -13 0 -9 17 14 65 20 42 38 58 38 35z m50 3 c0 -5 -4 -15 -10
-23 -11 -18 -25 -7 -17 15 6 15 27 21 27 8z m505 -39 c55 -8 183 -16 283 -19
101 -3 192 -10 201 -15 10 -5 39 -50 64 -101 l47 -92 -17 -60 c-20 -74 -78
-139 -138 -156 -94 -27 -171 -24 -438 18 -284 45 -325 58 -361 121 -30 51 -27
173 6 232 54 97 106 108 353 72z m929 7 c8 -13 -4 -42 -15 -35 -12 7 -12 44 0
44 6 0 12 -4 15 -9z m16 -80 c0 -6 -4 -13 -10 -16 -5 -3 -10 1 -10 9 0 9 5 16
10 16 6 0 10 -4 10 -9z m-1570 -41 c0 -5 -4 -10 -10 -10 -5 0 -10 5 -10 10 0
6 5 10 10 10 6 0 10 -4 10 -10z m-60 -124 c0 -17 -14 -29 -23 -20 -8 8 3 34
14 34 5 0 9 -6 9 -14z m260 -16 c0 -5 -4 -10 -10 -10 -5 0 -10 5 -10 10 0 6 5
10 10 10 6 0 10 -4 10 -10z m-290 -60 c0 -5 -4 -10 -10 -10 -5 0 -10 5 -10 10
0 6 5 10 10 10 6 0 10 -4 10 -10z m290 -9 c0 -12 -20 -25 -27 -18 -7 7 6 27
18 27 5 0 9 -4 9 -9z m6 -48 c-10 -10 -19 5 -10 18 6 11 8 11 12 0 2 -7 1 -15
-2 -18z m30 -40 c-10 -10 -19 5 -10 18 6 11 8 11 12 0 2 -7 1 -15 -2 -18z
m-46 -13 c0 -5 -4 -10 -10 -10 -5 0 -10 5 -10 10 0 6 5 10 10 10 6 0 10 -4 10
-10z m507 -36 c89 -13 197 -24 240 -24 70 0 82 -3 100 -22 29 -33 43 -82 43
-153 0 -107 -34 -169 -115 -206 -57 -27 -183 -25 -395 6 -296 43 -338 57 -372
126 -50 97 17 271 115 297 49 13 203 3 384 -24z m-837 -4 c0 -5 -4 -10 -10
-10 -5 0 -10 5 -10 10 0 6 5 10 10 10 6 0 10 -4 10 -10z m300 -20 c0 -5 -4
-10 -10 -10 -5 0 -10 5 -10 10 0 6 5 10 10 10 6 0 10 -4 10 -10z m-328 -45 c0
-5 -5 -11 -11 -13 -6 -2 -11 4 -11 13 0 9 5 15 11 13 6 -2 11 -8 11 -13z
m-162 -99 c0 -16 -18 -31 -27 -22 -8 8 5 36 17 36 5 0 10 -6 10 -14z m130 -6
c0 -5 -4 -10 -10 -10 -5 0 -10 5 -10 10 0 6 5 10 10 10 6 0 10 -4 10 -10z
m-202 -22 c-2 -6 -10 -14 -16 -16 -7 -2 -10 2 -6 12 7 18 28 22 22 4z m42 -52
c0 -16 -18 -31 -27 -22 -8 8 5 36 17 36 5 0 10 -6 10 -14z m130 6 c0 -21 -43
-132 -51 -132 -16 0 -11 26 26 128 5 13 25 17 25 4z m350 -52 c0 -5 -4 -10
-10 -10 -5 0 -10 5 -10 10 0 6 5 10 10 10 6 0 10 -4 10 -10z m-326 -51 c-3 -5
-10 -7 -15 -3 -5 3 -7 10 -3 15 3 5 10 7 15 3 5 -3 7 -10 3 -15z m360 -20 c-3
-5 -10 -7 -15 -3 -5 3 -7 10 -3 15 3 5 10 7 15 3 5 -3 7 -10 3 -15z m-391 -82
c-18 -62 -22 -69 -33 -62 -5 3 -2 29 7 58 18 62 22 69 33 62 5 -3 2 -29 -7
-58z m437 48 c0 -8 -4 -15 -9 -15 -13 0 -22 16 -14 24 11 11 23 6 23 -9z
m-499 -38 c-8 -8 -11 -7 -11 4 0 20 13 34 18 19 3 -7 -1 -17 -7 -23z m439 23
c0 -5 -4 -10 -10 -10 -5 0 -10 5 -10 10 0 6 5 10 10 10 6 0 10 -4 10 -10z
m509 -20 c98 -16 155 -19 211 -14 88 7 111 -1 140 -49 29 -47 26 -120 -6 -185
-44 -90 -124 -132 -245 -132 -63 0 -85 9 -59 25 5 3 35 10 67 15 90 15 85 29
-9 23 -149 -9 -328 40 -378 104 -36 46 -17 170 33 212 19 15 73 29 97 24 8 -1
75 -12 149 -23z m-409 10 c0 -5 -4 -10 -10 -10 -5 0 -10 5 -10 10 0 6 5 10 10
10 6 0 10 -4 10 -10z m-420 -10 c0 -5 -4 -10 -10 -10 -5 0 -10 5 -10 10 0 6 5
10 10 10 6 0 10 -4 10 -10z m470 3 c-1 -25 -28 -94 -36 -91 -18 6 6 98 26 98
5 0 10 -3 10 -7z m-110 -33 c0 -11 -6 -20 -14 -20 -9 0 -12 7 -9 20 3 11 9 20
14 20 5 0 9 -9 9 -20z m-376 -21 c-3 -5 -10 -7 -15 -3 -5 3 -7 10 -3 15 3 5
10 7 15 3 5 -3 7 -10 3 -15z m421 -6 c-3 -16 -13 -35 -21 -43 -12 -12 -14 -12
-14 2 0 27 19 68 31 68 7 0 9 -10 4 -27z m-105 7 c0 -5 -4 -10 -10 -10 -5 0
-10 5 -10 10 0 6 5 10 10 10 6 0 10 -4 10 -10z m-420 -10 c0 -5 -4 -10 -9 -10
-6 0 -13 5 -16 10 -3 6 1 10 9 10 9 0 16 -4 16 -10z m-130 -19 c0 -11 -4 -22
-9 -25 -11 -7 -20 14 -13 32 7 19 22 14 22 -7z m217 -43 c-8 -47 -28 -95 -34
-80 -7 19 17 112 29 112 6 0 8 -13 5 -32z m363 12 c0 -5 -4 -10 -10 -10 -5 0
-10 5 -10 10 0 6 5 10 10 10 6 0 10 -4 10 -10z m95 -20 c3 -5 1 -10 -4 -10 -6
0 -11 5 -11 10 0 6 2 10 4 10 3 0 8 -4 11 -10z m50 -12 c-15 -48 -41 -52 -29
-4 3 14 13 26 21 26 10 0 12 -6 8 -22z m-615 2 c0 -5 -2 -10 -4 -10 -3 0 -8 5
-11 10 -3 6 -1 10 4 10 6 0 11 -4 11 -10z m150 -15 c0 -8 -4 -15 -10 -15 -5 0
-10 7 -10 15 0 8 5 15 10 15 6 0 10 -7 10 -15z m360 5 c0 -5 -5 -10 -11 -10
-5 0 -7 5 -4 10 3 6 8 10 11 10 2 0 4 -4 4 -10z m-625 -56 c8 -65 -7 -96 -25
-50 -11 31 -13 89 -3 99 15 15 21 4 28 -49z m155 5 c0 -5 -4 -9 -10 -9 -5 0
-10 7 -10 16 0 8 5 12 10 9 6 -3 10 -10 10 -16z m96 -14 c-12 -46 -26 -75 -36
-75 -10 0 -6 31 11 78 12 31 33 29 25 -3z m304 -6 c0 -5 -4 -9 -10 -9 -5 0
-10 7 -10 16 0 8 5 12 10 9 6 -3 10 -10 10 -16z m-265 -16 c-8 -34 -13 -39
-24 -27 -11 11 4 54 20 54 7 0 9 -10 4 -27z m139 -21 c-9 -37 -15 -45 -25 -35
-12 12 9 75 22 67 5 -3 6 -17 3 -32z m266 28 c0 -5 -5 -10 -11 -10 -5 0 -7 5
-4 10 3 6 8 10 11 10 2 0 4 -4 4 -10z m50 -9 c0 -12 -20 -25 -27 -18 -7 7 6
27 18 27 5 0 9 -4 9 -9z m-560 -16 c0 -8 -4 -15 -10 -15 -5 0 -10 7 -10 15 0
8 5 15 10 15 6 0 10 -7 10 -15z m300 5 c0 -5 -4 -10 -10 -10 -5 0 -10 5 -10
10 0 6 5 10 10 10 6 0 10 -4 10 -10z m-165 -19 c3 -5 1 -12 -5 -16 -5 -3 -10
1 -10 9 0 18 6 21 15 7z m53 -2 c-2 -6 -8 -10 -13 -10 -5 0 -11 4 -13 10 -2 6
4 11 13 11 9 0 15 -5 13 -11z m156 -20 c-3 -5 -10 -7 -15 -3 -5 3 -7 10 -3 15
3 5 10 7 15 3 5 -3 7 -10 3 -15z m196 3 c0 -13 -12 -22 -22 -16 -10 6 -1 24
13 24 5 0 9 -4 9 -8z m50 -2 c0 -5 -7 -10 -16 -10 -8 0 -12 5 -9 10 3 6 10 10
16 10 5 0 9 -4 9 -10z m-510 -10 c0 -5 -4 -10 -10 -10 -5 0 -10 5 -10 10 0 6
5 10 10 10 6 0 10 -4 10 -10z m206 -15 c-12 -47 -26 -75 -37 -75 -11 0 -8 26
11 75 12 33 34 33 26 0z m-502 -11 c4 -9 4 -19 2 -21 -8 -8 -26 8 -26 23 0 19
16 18 24 -2z m336 1 c0 -8 -4 -15 -10 -15 -5 0 -10 7 -10 15 0 8 5 15 10 15 6
0 10 -7 10 -15z m508 3 c-6 -18 -28 -21 -28 -4 0 9 7 16 16 16 9 0 14 -5 12
-12z m-771 -13 c3 -9 3 -19 -1 -22 -7 -7 -36 16 -36 28 0 15 30 10 37 -6z
m313 8 c0 -5 -4 -15 -10 -23 -11 -18 -25 -7 -17 15 6 15 27 21 27 8z m200 -3
c0 -5 -5 -10 -11 -10 -5 0 -7 5 -4 10 3 6 8 10 11 10 2 0 4 -4 4 -10z m-50
-15 c0 -8 -4 -15 -10 -15 -5 0 -10 7 -10 15 0 8 5 15 10 15 6 0 10 -7 10 -15z
m250 1 c0 -21 -21 -76 -29 -76 -17 0 -18 13 -3 51 15 38 32 52 32 25z m-360
-5 c0 -6 -4 -13 -10 -16 -5 -3 -10 1 -10 9 0 9 5 16 10 16 6 0 10 -4 10 -9z
m310 -11 c0 -5 -7 -10 -15 -10 -8 0 -15 5 -15 10 0 6 7 10 15 10 8 0 15 -4 15
-10z m90 -9 c0 -17 -12 -41 -21 -41 -10 0 -12 33 -2 43 9 10 23 9 23 -2z
m-680 -11 c0 -5 -4 -10 -9 -10 -6 0 -13 5 -16 10 -3 6 1 10 9 10 9 0 16 -4 16
-10z m375 1 c3 -5 1 -12 -5 -16 -5 -3 -10 1 -10 9 0 18 6 21 15 7z m89 -22
c-3 -5 -10 -7 -15 -3 -5 3 -7 10 -3 15 3 5 10 7 15 3 5 -3 7 -10 3 -15z m56 2
c0 -12 -20 -25 -27 -18 -7 7 6 27 18 27 5 0 9 -4 9 -9z m348 -3 c-3 -7 -13
-15 -24 -17 -16 -3 -17 -1 -5 13 16 19 34 21 29 4z m-77 -71 c-13 -13 -26 -3
-16 12 3 6 11 8 17 5 6 -4 6 -10 -1 -17z m-53 -19 c-5 -16 -48 -24 -48 -10 0
11 17 20 38 21 8 1 12 -5 10 -11z m-290 -15 c2 -8 -5 -13 -17 -13 -12 0 -21 6
-21 16 0 18 31 15 38 -3z m182 -7 c0 -8 -7 -17 -16 -20 -33 -13 -114 -2 -114
15 0 7 24 11 108 17 13 1 22 -4 22 -12z m78 -48 c-5 -15 -58 -24 -58 -9 0 11
17 19 43 20 11 1 17 -4 15 -11z"/>
<path d="M3613 3173 c-35 -14 -4 -23 77 -23 83 0 112 9 74 24 -18 7 -133 7
-151 -1z"/>
<path d="M3580 3120 c0 -6 36 -10 89 -10 50 0 93 5 96 10 4 6 -28 10 -89 10
-57 0 -96 -4 -96 -10z"/>
<path d="M3565 3090 c-1 -3 -30 -58 -64 -122 l-61 -118 165 0 165 0 0 119 0
120 -101 3 c-56 2 -102 1 -104 -2z"/>
<path d="M4893 2818 c3 -10 52 -13 202 -13 150 0 199 3 203 13 3 9 -42 12
-203 12 -161 0 -206 -3 -202 -12z"/>
<path d="M3420 2805 c0 -13 25 -15 165 -15 91 0 168 -1 173 -2 4 -1 8 6 10 15
3 15 -13 17 -172 17 -150 0 -176 -2 -176 -15z"/>
<path d="M4998 2773 c57 -2 147 -2 200 0 53 1 7 3 -103 3 -110 0 -154 -2 -97
-3z"/>
<path d="M3363 2743 c-43 -17 9 -23 192 -23 176 0 205 2 205 15 0 13 -28 15
-192 14 -106 0 -199 -3 -205 -6z"/>
<path d="M4890 2730 c0 -6 75 -10 205 -10 130 0 205 4 205 10 0 6 -75 10 -205
10 -130 0 -205 -4 -205 -10z"/>
<path d="M4915 2680 c44 -11 368 -11 385 0 10 6 -58 9 -200 9 -121 -1 -202 -5
-185 -9z"/>
<path d="M3683 2658 c2 -7 19 -13 37 -13 18 0 35 6 38 13 2 8 -9 12 -38 12
-29 0 -40 -4 -37 -12z"/>
<path d="M4894 2636 c-3 -8 -4 -29 -2 -48 l3 -33 148 -3 148 -3 60 37 c97 60
88 64 -146 64 -167 0 -207 -3 -211 -14z"/>
<path d="M3692 2623 c-22 -9 -2 -23 34 -23 24 0 34 5 34 15 0 15 -39 20 -68 8z"/>
<path d="M4916 2521 c-36 -14 9 -21 139 -21 114 0 158 9 119 24 -22 9 -235 6
-258 -3z"/>
<path d="M3686 2481 c-7 -10 30 -19 57 -13 9 2 17 8 17 13 0 12 -67 12 -74 0z"/>
<path d="M4903 2473 c-19 -7 -17 -80 3 -87 9 -3 63 -6 120 -6 l104 0 20 33
c40 64 35 67 -107 66 -71 0 -134 -3 -140 -6z"/>
<path d="M3322 2393 c-38 -4 -43 -7 -40 -26 3 -22 5 -22 241 -25 l238 -2 -3
27 -3 28 -195 1 c-107 0 -214 -1 -238 -3z"/>
<path d="M4905 2350 c4 -6 53 -10 116 -10 66 0 109 4 109 10 0 6 -45 10 -116
10 -74 0 -113 -4 -109 -10z"/>
<path d="M3315 2310 c-4 -7 73 -10 225 -10 152 0 229 3 225 10 -4 6 -90 10
-225 10 -135 0 -221 -4 -225 -10z"/>
<path d="M4900 2300 c0 -6 43 -10 110 -10 67 0 110 4 110 10 0 6 -43 10 -110
10 -67 0 -110 -4 -110 -10z"/>
<path d="M3403 2263 c-23 -9 -13 -20 36 -42 43 -18 69 -21 195 -21 146 0 146
0 146 23 0 44 -14 47 -195 46 -93 0 -176 -3 -182 -6z"/>
<path d="M4905 2260 c3 -6 50 -10 105 -10 55 0 102 4 105 10 4 6 -33 10 -105
10 -72 0 -109 -4 -105 -10z"/>
<path d="M4893 2207 c-10 -13 -28 -29 -40 -35 -16 -9 -197 -12 -666 -12 l-645
0 21 -50 21 -50 740 2 741 3 18 68 c10 38 16 75 13 83 -4 11 -27 14 -95 14
-82 0 -91 -2 -108 -23z"/>
<path d="M4475 1980 c-4 -7 92 -10 280 -10 188 0 284 3 280 10 -4 6 -108 10
-280 10 -172 0 -276 -4 -280 -10z"/>
<path d="M3595 1970 c7 -12 224 -12 270 0 18 5 -31 8 -123 9 -100 1 -151 -2
-147 -9z"/>
<path d="M4530 1933 c0 -3 11 -21 25 -39 14 -18 25 -37 25 -43 0 -6 16 -11 37
-11 30 0 45 9 89 50 l53 50 -115 0 c-63 0 -114 -3 -114 -7z"/>
<path d="M4590 1776 c0 -73 31 -90 56 -31 22 54 19 65 -21 65 -33 0 -35 -2
-35 -34z"/>
<path d="M4894 3116 c-3 -7 -4 -33 -2 -57 l3 -44 208 -3 208 -2 -3 57 -3 58
-203 3 c-167 2 -203 0 -208 -12z"/>
<path d="M4918 2983 c-10 -2 -18 -9 -18 -14 0 -5 86 -9 206 -9 160 0 205 3
202 13 -4 9 -51 12 -189 13 -101 1 -192 0 -201 -3z"/>
<path d="M3938 3083 c7 -3 16 -2 19 1 4 3 -2 6 -13 5 -11 0 -14 -3 -6 -6z"/>
<path d="M3988 3083 c7 -3 16 -2 19 1 4 3 -2 6 -13 5 -11 0 -14 -3 -6 -6z"/>
<path d="M3930 3050 c0 -5 16 -10 36 -10 21 0 33 4 29 10 -3 6 -19 10 -36 10
-16 0 -29 -4 -29 -10z"/>
<path d="M4025 3050 c4 -6 11 -8 16 -5 14 9 11 15 -7 15 -8 0 -12 -5 -9 -10z"/>
<path d="M3935 2960 c-4 -7 133 -10 404 -10 267 0 411 3 411 10 0 7 -141 10
-404 10 -259 0 -407 -4 -411 -10z"/>
<path d="M3930 2920 c0 -7 143 -10 410 -10 267 0 410 3 410 10 0 7 -143 10
-410 10 -267 0 -410 -3 -410 -10z"/>
<path d="M3930 2860 c0 -6 34 -10 81 -10 51 0 78 4 74 10 -3 6 -40 10 -81 10
-43 0 -74 -4 -74 -10z"/>
<path d="M3940 2820 c0 -5 6 -10 14 -10 8 0 18 5 21 10 3 6 -3 10 -14 10 -12
0 -21 -4 -21 -10z"/>
<path d="M4010 2820 c0 -5 4 -10 9 -10 6 0 13 5 16 10 3 6 -1 10 -9 10 -9 0
-16 -4 -16 -10z"/>
<path d="M3948 2783 c7 -3 16 -2 19 1 4 3 -2 6 -13 5 -11 0 -14 -3 -6 -6z"/>
<path d="M3935 2750 c3 -5 10 -10 16 -10 5 0 9 5 9 10 0 6 -7 10 -16 10 -8 0
-12 -4 -9 -10z"/>
<path d="M4008 2753 c7 -3 16 -2 19 1 4 3 -2 6 -13 5 -11 0 -14 -3 -6 -6z"/>
<path d="M4020 2720 c-21 -7 -18 -8 18 -9 26 -1 41 3 37 9 -7 11 -19 11 -55 0z"/>
<path d="M3938 2713 c6 -2 18 -2 25 0 6 3 1 5 -13 5 -14 0 -19 -2 -12 -5z"/>
<path d="M3935 2680 c3 -5 44 -10 91 -10 49 0 84 4 84 10 0 6 -37 10 -91 10
-57 0 -88 -4 -84 -10z"/>
<path d="M3940 2640 c0 -5 7 -10 15 -10 8 0 15 5 15 10 0 6 -7 10 -15 10 -8 0
-15 -4 -15 -10z"/>
<path d="M4030 2640 c37 -12 270 -12 270 0 0 6 -55 10 -147 9 -90 -1 -138 -4
-123 -9z"/>
<path d="M4348 2643 c7 -3 16 -2 19 1 4 3 -2 6 -13 5 -11 0 -14 -3 -6 -6z"/>
<path d="M3940 2610 c0 -5 7 -10 16 -10 8 0 12 5 9 10 -3 6 -10 10 -16 10 -5
0 -9 -4 -9 -10z"/>
<path d="M3920 2561 c-11 -22 -14 -190 -2 -207 5 -8 132 -12 417 -15 l410 -4
3 22 3 22 -293 3 c-256 3 -297 5 -325 21 -23 12 -55 17 -113 17 -101 0 -106
18 -5 22 96 4 103 22 10 26 -38 1 -77 5 -85 8 -32 11 16 24 81 22 64 -2 68 -1
94 30 l27 32 299 0 c193 0 299 4 299 10 0 7 -142 10 -405 10 -389 0 -405 -1
-415 -19z"/>
<path d="M3150 2180 c0 -5 5 -10 10 -10 6 0 10 5 10 10 0 6 -4 10 -10 10 -5 0
-10 -4 -10 -10z"/>
<path d="M3111 2158 c0 -13 4 -32 9 -43 7 -15 9 -10 9 23 1 23 -3 42 -9 42 -5
0 -10 -10 -9 -22z"/>
<path d="M3077 2098 c7 -39 23 -61 23 -32 0 30 -11 64 -21 64 -5 0 -6 -15 -2
-32z"/>
<path d="M3160 2110 c0 -5 5 -10 11 -10 5 0 7 5 4 10 -3 6 -8 10 -11 10 -2 0
-4 -4 -4 -10z"/>
<path d="M4410 1704 c0 -14 4 -23 9 -20 5 3 7 15 4 26 -7 28 -13 25 -13 -6z"/>
<path d="M4331 1672 c-1 -33 3 -51 9 -47 12 7 12 52 0 80 -6 15 -9 6 -9 -33z"/>
<path d="M4240 1700 c0 -5 5 -10 10 -10 6 0 10 5 10 10 0 6 -4 10 -10 10 -5 0
-10 -4 -10 -10z"/>
<path d="M4130 1690 c0 -5 5 -10 10 -10 6 0 10 5 10 10 0 6 -4 10 -10 10 -5 0
-10 -4 -10 -10z"/>
<path d="M4200 1664 c0 -21 4 -33 10 -29 6 3 10 19 10 36 0 16 -4 29 -10 29
-5 0 -10 -16 -10 -36z"/>
<path d="M4167 1673 c-11 -10 -8 -51 3 -58 6 -4 10 8 10 29 0 37 -2 41 -13 29z"/>
<path d="M4280 1645 c0 -19 5 -35 10 -35 6 0 10 16 10 35 0 19 -4 35 -10 35
-5 0 -10 -16 -10 -35z"/>
<path d="M4370 1656 c0 -14 5 -26 10 -26 6 0 10 9 10 19 0 11 -4 23 -10 26 -6
4 -10 -5 -10 -19z"/>
<path d="M4240 1625 c0 -15 4 -24 10 -20 6 3 10 12 10 20 0 8 -4 17 -10 20 -6
4 -10 -5 -10 -20z"/>
<path d="M4201 1584 c0 -11 3 -14 6 -6 3 7 2 16 -1 19 -3 4 -6 -2 -5 -13z"/>
<path d="M4327 1565 c-4 -8 -2 -17 3 -20 6 -4 10 3 10 14 0 25 -6 27 -13 6z"/>
<path d="M4285 1561 c-3 -5 -1 -12 5 -16 5 -3 10 1 10 9 0 18 -6 21 -15 7z"/>
<path d="M4240 1550 c0 -5 5 -10 10 -10 6 0 10 5 10 10 0 6 -4 10 -10 10 -5 0
-10 -4 -10 -10z"/>
<path d="M3815 1820 c-3 -5 -1 -10 4 -10 6 0 11 5 11 10 0 6 -2 10 -4 10 -3 0
-8 -4 -11 -10z"/>
<path d="M3853 1795 c0 -22 2 -30 4 -17 2 12 2 30 0 40 -3 9 -5 -1 -4 -23z"/>
<path d="M3777 1756 c-4 -15 -6 -31 -2 -34 10 -10 16 6 13 35 l-3 28 -8 -29z"/>
<path d="M3810 1735 c0 -22 4 -34 10 -30 6 3 10 17 10 30 0 13 -4 27 -10 30
-6 4 -10 -8 -10 -30z"/>
<path d="M3743 1695 c0 -22 2 -30 4 -17 2 12 2 30 0 40 -3 9 -5 -1 -4 -23z"/>
<path d="M3851 1714 c0 -11 3 -14 6 -6 3 7 2 16 -1 19 -3 4 -6 -2 -5 -13z"/>
<path d="M3893 1690 c0 -25 2 -35 4 -22 2 12 2 32 0 45 -2 12 -4 2 -4 -23z"/>
<path d="M3770 1670 c0 -5 5 -10 10 -10 6 0 10 5 10 10 0 6 -4 10 -10 10 -5 0
-10 -4 -10 -10z"/>
<path d="M2772 1577 c-29 -35 -52 -105 -52 -163 0 -88 14 -102 115 -113 99
-11 109 -4 130 94 28 131 16 158 -80 181 -75 17 -100 17 -113 1z m108 -18 c85
-18 94 -41 64 -170 l-16 -69 -77 0 c-66 0 -81 3 -97 21 -35 39 -20 156 28 217
13 15 32 15 98 1z"/>
<path d="M2830 1440 c0 -5 5 -10 11 -10 5 0 7 5 4 10 -3 6 -8 10 -11 10 -2 0
-4 -4 -4 -10z"/>
<path d="M2878 1433 c6 -2 18 -2 25 0 6 3 1 5 -13 5 -14 0 -19 -2 -12 -5z"/>
<path d="M2798 1403 c7 -3 16 -2 19 1 4 3 -2 6 -13 5 -11 0 -14 -3 -6 -6z"/>
<path d="M2850 1400 c-11 -7 -5 -10 23 -10 23 0 36 4 32 10 -8 13 -35 13 -55
0z"/>
<path d="M2775 1360 c3 -5 10 -10 16 -10 5 0 9 5 9 10 0 6 -7 10 -16 10 -8 0
-12 -4 -9 -10z"/>
<path d="M3174 1452 c1 -56 -4 -86 -17 -111 -19 -38 -15 -55 8 -25 21 28 38
119 30 164 -12 68 -23 53 -21 -28z"/>
<path d="M3520 1480 c0 -5 5 -10 10 -10 6 0 10 5 10 10 0 6 -4 10 -10 10 -5 0
-10 -4 -10 -10z"/>
<path d="M3470 1456 c0 -9 5 -16 10 -16 6 0 10 4 10 9 0 6 -4 13 -10 16 -5 3
-10 -1 -10 -9z"/>
<path d="M3560 1441 c0 -6 5 -13 10 -16 6 -3 10 1 10 9 0 9 -4 16 -10 16 -5 0
-10 -4 -10 -9z"/>
<path d="M3371 1404 c0 -11 3 -14 6 -6 3 7 2 16 -1 19 -3 4 -6 -2 -5 -13z"/>
<path d="M3421 1404 c0 -11 3 -14 6 -6 3 7 2 16 -1 19 -3 4 -6 -2 -5 -13z"/>
<path d="M3466 1369 c-8 -44 -8 -69 3 -69 12 0 24 81 13 92 -6 6 -12 -4 -16
-23z"/>
<path d="M3558 1353 c-3 -27 -3 -50 -1 -53 9 -10 23 28 23 63 0 54 -17 46 -22
-10z"/>
<path d="M3220 1380 c0 -5 5 -10 10 -10 6 0 10 5 10 10 0 6 -4 10 -10 10 -5 0
-10 -4 -10 -10z"/>
<path d="M3269 1385 c-13 -20 -21 -95 -10 -95 6 0 13 11 17 24 7 29 1 85 -7
71z"/>
<path d="M3310 1360 c0 -5 5 -10 11 -10 5 0 7 5 4 10 -3 6 -8 10 -11 10 -2 0
-4 -4 -4 -10z"/>
<path d="M3050 1328 c0 -25 3 -29 10 -18 13 20 13 50 0 50 -5 0 -10 -15 -10
-32z"/>
<path d="M3100 1349 c0 -5 5 -7 10 -4 6 3 10 8 10 11 0 2 -4 4 -10 4 -5 0 -10
-5 -10 -11z"/>
<path d="M3353 1303 c-11 -51 -9 -63 8 -46 14 14 24 93 13 93 -5 0 -14 -21
-21 -47z"/>
<path d="M3406 1334 c-7 -19 -8 -69 -1 -62 3 3 10 19 15 37 9 31 -3 54 -14 25z"/>
<path d="M3503 1303 c-11 -51 -9 -63 8 -46 14 14 24 93 13 93 -5 0 -14 -21
-21 -47z"/>
<path d="M3194 1288 c-10 -29 -20 -56 -22 -60 -2 -4 1 -8 6 -8 14 0 54 102 44
112 -4 4 -17 -15 -28 -44z"/>
<path d="M3085 1274 c-8 -44 1 -56 15 -20 12 33 13 56 1 56 -5 0 -12 -16 -16
-36z"/>
<path d="M3290 1265 c-7 -25 -10 -48 -7 -52 8 -7 37 59 37 82 0 31 -18 13 -30
-30z"/>
<path d="M2996 1274 c-9 -36 1 -43 14 -10 12 33 12 36 1 36 -5 0 -12 -12 -15
-26z"/>
<path d="M2956 1281 c-4 -7 -5 -15 -2 -18 9 -9 19 4 14 18 -4 11 -6 11 -12 0z"/>
<path d="M3036 1261 c-4 -7 -5 -15 -2 -18 9 -9 19 4 14 18 -4 11 -6 11 -12 0z"/>
<path d="M3137 1264 c-4 -4 -7 -14 -7 -23 0 -11 3 -12 11 -4 6 6 10 16 7 23
-2 6 -7 8 -11 4z"/>
<path d="M3450 1249 c0 -11 5 -17 10 -14 6 3 10 13 10 21 0 8 -4 14 -10 14 -5
0 -10 -9 -10 -21z"/>
<path d="M3223 1235 c-8 -22 6 -33 17 -15 13 20 12 30 0 30 -6 0 -13 -7 -17
-15z"/>
<path d="M3386 1231 c-4 -7 -5 -15 -2 -18 9 -9 19 4 14 18 -4 11 -6 11 -12 0z"/>
<path d="M3326 1221 c-4 -7 -5 -15 -2 -18 9 -9 19 4 14 18 -4 11 -6 11 -12 0z"/>
<path d="M2715 1099 c-22 -54 -31 -164 -16 -201 10 -27 13 -28 88 -28 113 1
118 7 118 128 l0 97 -37 18 c-20 10 -58 20 -85 24 l-50 5 -18 -43z m120 8 l50
-13 3 -75 c2 -40 1 -83 -2 -95 -8 -30 -58 -46 -118 -38 -57 8 -64 21 -55 117
10 119 22 130 122 104z"/>
<path d="M2785 970 c-4 -6 7 -10 24 -10 17 0 31 5 31 10 0 6 -11 10 -24 10
-14 0 -28 -4 -31 -10z"/>
<path d="M2745 940 c-4 -6 11 -10 37 -9 36 1 39 2 18 9 -36 11 -48 11 -55 0z"/>
<path d="M3154 1040 c3 -25 2 -60 -4 -77 -5 -18 -14 -46 -19 -63 -14 -46 4
-36 24 13 20 48 22 144 5 161 -10 8 -11 1 -6 -34z"/>
<path d="M3000 1001 c0 -25 6 -27 13 -6 4 8 2 17 -3 20 -6 4 -10 -3 -10 -14z"/>
<path d="M3351 994 c0 -11 3 -14 6 -6 3 7 2 16 -1 19 -3 4 -6 -2 -5 -13z"/>
<path d="M3401 994 c0 -11 3 -14 6 -6 3 7 2 16 -1 19 -3 4 -6 -2 -5 -13z"/>
<path d="M3200 986 c0 -9 5 -16 10 -16 6 0 10 4 10 9 0 6 -4 13 -10 16 -5 3
-10 -1 -10 -9z"/>
<path d="M3090 965 c0 -8 5 -15 10 -15 6 0 10 7 10 15 0 8 -4 15 -10 15 -5 0
-10 -7 -10 -15z"/>
<path d="M3430 959 c0 -11 5 -17 10 -14 6 3 10 13 10 21 0 8 -4 14 -10 14 -5
0 -10 -9 -10 -21z"/>
<path d="M2950 944 c0 -8 5 -12 10 -9 6 4 8 11 5 16 -9 14 -15 11 -15 -7z"/>
<path d="M2990 913 c0 -28 3 -34 10 -23 13 20 13 60 0 60 -5 0 -10 -17 -10
-37z"/>
<path d="M3347 943 c-3 -4 -8 -26 -12 -47 -6 -27 -4 -37 3 -32 12 7 28 74 19
82 -3 3 -7 2 -10 -3z"/>
<path d="M3250 929 c0 -5 5 -7 10 -4 6 3 10 8 10 11 0 2 -4 4 -10 4 -5 0 -10
-5 -10 -11z"/>
<path d="M3386 918 c-9 -36 -7 -73 3 -62 14 14 25 84 13 84 -5 0 -12 -10 -16
-22z"/>
<path d="M3190 908 c0 -13 -3 -34 -6 -48 -5 -24 -5 -24 10 -6 18 22 22 76 6
76 -5 0 -10 -10 -10 -22z"/>
<path d="M3286 898 c-9 -34 -7 -60 3 -54 14 9 23 58 13 68 -6 6 -12 0 -16 -14z"/>
<path d="M3037 903 c-3 -5 -8 -27 -12 -50 -8 -48 9 -61 19 -15 3 15 8 37 12
50 6 20 -9 32 -19 15z"/>
<path d="M3088 904 c-5 -4 -8 -19 -8 -33 0 -18 3 -22 11 -14 6 6 9 21 7 33 -1
12 -6 18 -10 14z"/>
<path d="M3426 877 c-5 -15 -6 -31 -2 -34 11 -11 18 5 14 34 l-4 28 -8 -28z"/>
<path d="M2940 878 c0 -7 -3 -24 -6 -38 -5 -24 -5 -24 10 -6 18 22 21 56 6 56
-5 0 -10 -6 -10 -12z"/>
<path d="M3225 840 c-17 -52 -16 -71 2 -48 18 23 34 81 24 91 -5 5 -16 -12
-26 -43z"/>
<path d="M2897 854 c-4 -4 -7 -14 -7 -23 0 -11 3 -12 11 -4 6 6 10 16 7 23 -2
6 -7 8 -11 4z"/>
<path d="M2977 836 c-4 -10 -5 -21 -2 -24 9 -9 17 6 13 25 -3 17 -4 17 -11 -1z"/>
<path d="M3316 821 c-4 -7 -5 -15 -2 -18 9 -9 19 4 14 18 -4 11 -6 11 -12 0z"/>
<path d="M3367 823 c-4 -3 -7 -11 -7 -17 0 -6 5 -5 12 2 6 6 9 14 7 17 -3 3
-9 2 -12 -2z"/>
<path d="M3065 810 c-3 -5 -1 -10 4 -10 6 0 11 5 11 10 0 6 -2 10 -4 10 -3 0
-8 -4 -11 -10z"/>
<path d="M3117 814 c-4 -4 -7 -14 -7 -23 0 -11 3 -12 11 -4 6 6 10 16 7 23 -2
6 -7 8 -11 4z"/>
<path d="M3266 811 c-4 -7 -5 -15 -2 -18 9 -9 19 4 14 18 -4 11 -6 11 -12 0z"/>
<path d="M3160 800 c0 -5 5 -10 10 -10 6 0 10 5 10 10 0 6 -4 10 -10 10 -5 0
-10 -4 -10 -10z"/>
<path d="M2852 710 c-23 -24 -45 -131 -35 -168 10 -39 98 -58 136 -29 17 12
37 94 37 154 0 36 -13 45 -83 58 -28 6 -38 3 -55 -15z m94 -15 c33 -14 35 -16
29 -52 -19 -118 -23 -123 -74 -123 -62 0 -75 17 -67 86 11 99 38 120 112 89z"/>
<path d="M2865 610 c3 -5 8 -10 11 -10 2 0 4 5 4 10 0 6 -5 10 -11 10 -5 0 -7
-4 -4 -10z"/>
<path d="M2905 600 c3 -5 10 -10 16 -10 5 0 9 5 9 10 0 6 -7 10 -16 10 -8 0
-12 -4 -9 -10z"/>
<path d="M2850 576 c0 -2 9 -6 20 -9 11 -3 20 -1 20 4 0 5 -9 9 -20 9 -11 0
-20 -2 -20 -4z"/>
<path d="M3140 609 c0 -37 -2 -82 -5 -100 l-5 -34 14 30 c17 34 21 132 6 155
-7 11 -10 -5 -10 -51z"/>
<path d="M3330 594 c0 -8 5 -12 10 -9 6 4 8 11 5 16 -9 14 -15 11 -15 -7z"/>
<path d="M3190 553 c0 -28 3 -34 10 -23 13 20 13 60 0 60 -5 0 -10 -17 -10
-37z"/>
<path d="M3376 571 c-4 -7 -5 -15 -2 -18 9 -9 19 4 14 18 -4 11 -6 11 -12 0z"/>
<path d="M3285 557 c-4 -10 -5 -21 -1 -24 10 -10 18 4 13 24 -4 17 -4 17 -12
0z"/>
<path d="M3037 530 c-3 -11 -1 -20 4 -20 5 0 9 2 9 4 0 2 3 11 6 20 3 9 2 16
-4 16 -5 0 -12 -9 -15 -20z"/>
<path d="M3085 537 c-4 -10 -5 -21 -1 -24 10 -10 18 4 13 24 -4 17 -4 17 -12
0z"/>
<path d="M3231 519 c-14 -40 -14 -52 0 -44 16 11 31 57 21 67 -6 6 -14 -3 -21
-23z"/>
<path d="M3324 520 c-12 -38 -9 -49 7 -33 6 6 9 23 7 39 l-4 29 -10 -35z"/>
<path d="M3351 493 c-12 -27 -9 -39 7 -29 13 8 22 45 13 51 -5 2 -13 -7 -20
-22z"/>
<path d="M2987 496 c-4 -10 -5 -21 -2 -24 9 -9 17 6 13 25 -3 17 -4 17 -11 -1z"/>
<path d="M3266 484 c-4 -10 -1 -14 6 -12 15 5 23 28 10 28 -5 0 -13 -7 -16
-16z"/>
<path d="M3070 476 c0 -9 5 -16 10 -16 6 0 10 4 10 9 0 6 -4 13 -10 16 -5 3
-10 -1 -10 -9z"/>
<path d="M3176 481 c-4 -7 -5 -15 -2 -18 9 -9 19 4 14 18 -4 11 -6 11 -12 0z"/>
<path d="M3025 470 c-3 -5 -1 -10 4 -10 6 0 11 5 11 10 0 6 -2 10 -4 10 -3 0
-8 -4 -11 -10z"/>
<path d="M3290 435 c-10 -12 -10 -15 4 -15 9 0 16 7 16 15 0 8 -2 15 -4 15 -2
0 -9 -7 -16 -15z"/>
<path d="M2895 2630 c-3 -5 -1 -10 4 -10 6 0 11 5 11 10 0 6 -2 10 -4 10 -3 0
-8 -4 -11 -10z"/>
<path d="M2290 2595 c0 -14 5 -25 10 -25 6 0 10 11 10 25 0 14 -4 25 -10 25
-5 0 -10 -11 -10 -25z"/>
<path d="M2175 2600 c-3 -5 -1 -18 4 -27 9 -16 10 -14 11 10 0 28 -5 34 -15
17z"/>
<path d="M2230 2600 c0 -5 5 -10 10 -10 6 0 10 5 10 10 0 6 -4 10 -10 10 -5 0
-10 -4 -10 -10z"/>
<path d="M3015 2590 c-3 -5 3 -10 14 -10 11 0 23 5 26 10 3 6 -3 10 -14 10
-11 0 -23 -4 -26 -10z"/>
<path d="M2120 2561 c0 -12 5 -21 10 -21 6 0 10 6 10 14 0 8 -4 18 -10 21 -5
3 -10 -3 -10 -14z"/>
<path d="M2945 2560 c-3 -5 1 -10 9 -10 8 0 18 5 21 10 3 6 -1 10 -9 10 -8 0
-18 -4 -21 -10z"/>
<path d="M3060 2560 c-13 -8 -12 -10 3 -10 9 0 17 5 17 10 0 12 -1 12 -20 0z"/>
<path d="M2230 2531 c0 -12 5 -21 10 -21 6 0 10 6 10 14 0 8 -4 18 -10 21 -5
3 -10 -3 -10 -14z"/>
<path d="M3000 2540 c-13 -8 -12 -10 3 -10 9 0 17 5 17 10 0 12 -1 12 -20 0z"/>
<path d="M2180 2530 c0 -5 5 -10 10 -10 6 0 10 5 10 10 0 6 -4 10 -10 10 -5 0
-10 -4 -10 -10z"/>
<path d="M3072 2523 c-6 -2 -10 -9 -7 -13 7 -11 35 -2 35 11 0 10 -8 10 -28 2z"/>
<path d="M2451 2434 c0 -11 3 -14 6 -6 3 7 2 16 -1 19 -3 4 -6 -2 -5 -13z"/>
<path d="M2752 2399 c-7 -12 -11 -24 -7 -27 7 -8 25 17 25 36 0 17 -3 15 -18
-9z"/>
<path d="M2837 2393 c-4 -3 -7 -11 -7 -17 0 -6 5 -5 12 2 6 6 9 14 7 17 -3 3
-9 2 -12 -2z"/>
<path d="M2486 2368 c-3 -13 -6 -41 -6 -63 1 -52 16 -27 22 38 6 48 -5 65 -16
25z"/>
<path d="M2535 2380 c-3 -5 -1 -10 4 -10 6 0 11 5 11 10 0 6 -2 10 -4 10 -3 0
-8 -4 -11 -10z"/>
<path d="M2576 2325 c-8 -53 5 -87 15 -40 10 46 10 85 0 85 -5 0 -12 -20 -15
-45z"/>
<path d="M2846 2347 c-14 -15 -26 -32 -26 -39 0 -7 14 2 32 19 18 18 29 35 26
39 -4 3 -18 -5 -32 -19z"/>
<path d="M2383 2320 c0 -25 2 -35 4 -22 2 12 2 32 0 45 -2 12 -4 2 -4 -23z"/>
<path d="M2526 2307 c-9 -34 -7 -95 3 -101 5 -4 11 21 13 55 3 62 -5 87 -16
46z"/>
<path d="M2895 2320 c-3 -5 1 -10 9 -10 9 0 16 5 16 10 0 6 -4 10 -9 10 -6 0
-13 -4 -16 -10z"/>
<path d="M2730 2304 c0 -8 5 -12 10 -9 6 4 8 11 5 16 -9 14 -15 11 -15 -7z"/>
<path d="M2426 2284 c-8 -32 2 -86 15 -78 12 7 12 104 0 104 -5 0 -12 -12 -15
-26z"/>
<path d="M2627 2303 c-11 -10 -8 -103 3 -103 6 0 10 25 10 55 0 56 -1 60 -13
48z"/>
<path d="M2965 2300 c-3 -5 -1 -10 4 -10 6 0 11 5 11 10 0 6 -2 10 -4 10 -3 0
-8 -4 -11 -10z"/>
<path d="M2285 2290 c-3 -5 -1 -10 4 -10 6 0 11 5 11 10 0 6 -2 10 -4 10 -3 0
-8 -4 -11 -10z"/>
<path d="M2332 2275 c0 -16 2 -22 5 -12 2 9 2 23 0 30 -3 6 -5 -1 -5 -18z"/>
<path d="M2851 2279 c-23 -25 -27 -39 -11 -39 12 0 45 49 37 56 -3 3 -14 -5
-26 -17z"/>
<path d="M2905 2260 c-10 -11 -15 -23 -12 -27 8 -7 47 25 47 39 0 14 -16 9
-35 -12z"/>
<path d="M2220 2240 c0 -5 5 -10 10 -10 6 0 10 5 10 10 0 6 -4 10 -10 10 -5 0
-10 -4 -10 -10z"/>
<path d="M2381 2234 c0 -11 3 -14 6 -6 3 7 2 16 -1 19 -3 4 -6 -2 -5 -13z"/>
<path d="M2670 2225 c0 -14 5 -25 10 -25 6 0 10 11 10 25 0 14 -4 25 -10 25
-5 0 -10 -11 -10 -25z"/>
<path d="M2480 2223 c0 -13 5 -23 10 -23 13 0 13 11 0 30 -8 12 -10 11 -10 -7z"/>
<path d="M2170 2220 c0 -5 5 -10 11 -10 5 0 7 5 4 10 -3 6 -8 10 -11 10 -2 0
-4 -4 -4 -10z"/>
<path d="M2575 2221 c-3 -5 -1 -12 5 -16 5 -3 10 1 10 9 0 18 -6 21 -15 7z"/>
<path d="M2851 2206 c-8 -9 -11 -19 -7 -23 9 -9 29 13 24 27 -2 8 -8 7 -17 -4z"/>
<path d="M2894 2176 c-20 -20 -34 -40 -30 -43 4 -4 23 10 43 30 21 20 34 39
30 43 -3 4 -23 -10 -43 -30z"/>
<path d="M2160 2145 c7 -8 16 -15 21 -15 5 0 6 7 3 15 -4 8 -13 15 -21 15 -13
0 -13 -3 -3 -15z"/>
<path d="M2945 2146 c-11 -8 -14 -15 -8 -19 6 -4 16 0 23 8 17 21 8 28 -15 11z"/>
<path d="M2294 2115 c24 -18 39 -20 34 -2 -3 6 -15 13 -29 15 -23 2 -23 2 -5
-13z"/>
<path d="M2890 2105 c-7 -8 -8 -15 -2 -15 5 0 15 7 22 15 7 8 8 15 2 15 -5 0
-15 -7 -22 -15z"/>
<path d="M2233 2075 c27 -24 57 -33 57 -17 0 10 -54 42 -72 42 -7 0 -1 -12 15
-25z"/>
<path d="M2378 2083 c7 -3 16 -2 19 1 4 3 -2 6 -13 5 -11 0 -14 -3 -6 -6z"/>
<path d="M2925 2070 c-23 -26 -4 -26 26 0 18 15 20 19 8 20 -9 0 -24 -9 -34
-20z"/>
<path d="M2175 2060 c3 -5 11 -10 16 -10 6 0 7 5 4 10 -3 6 -11 10 -16 10 -6
0 -7 -4 -4 -10z"/>
<path d="M2320 2041 c0 -12 39 -25 48 -16 7 7 -17 25 -35 25 -7 0 -13 -4 -13
-9z"/>
<path d="M2234 2015 c22 -17 36 -19 36 -6 0 10 -24 21 -43 21 -7 0 -3 -7 7
-15z"/>
<path d="M2945 2019 c-11 -17 0 -20 21 -4 17 13 17 14 2 15 -9 0 -20 -5 -23
-11z"/>
<path d="M2200 1980 c0 -6 7 -10 15 -10 8 0 15 2 15 4 0 2 -7 6 -15 10 -8 3
-15 1 -15 -4z"/>
<path d="M2300 1980 c19 -13 30 -13 30 0 0 6 -10 10 -22 10 -19 0 -20 -2 -8
-10z"/>
<path d="M2975 1969 c-10 -15 3 -25 16 -12 7 7 7 13 1 17 -6 3 -14 1 -17 -5z"/>
<path d="M2252 1948 c2 -6 14 -15 27 -20 16 -5 21 -4 19 4 -2 6 -14 15 -27 20
-16 5 -21 4 -19 -4z"/>
<path d="M1520 1934 c0 -8 5 -12 10 -9 6 4 8 11 5 16 -9 14 -15 11 -15 -7z"/>
<path d="M2220 1910 c0 -12 40 -34 48 -26 3 4 -3 13 -14 21 -22 17 -34 19 -34
5z"/>
<path d="M2145 1900 c-3 -5 1 -10 10 -10 9 0 13 5 10 10 -3 6 -8 10 -10 10 -2
0 -7 -4 -10 -10z"/>
<path d="M1480 1871 c0 -17 5 -31 10 -31 6 0 10 11 10 24 0 14 -4 28 -10 31
-6 4 -10 -7 -10 -24z"/>
<path d="M1430 1821 c0 -6 5 -13 10 -16 6 -3 10 1 10 9 0 9 -4 16 -10 16 -5 0
-10 -4 -10 -9z"/>
<path d="M2160 1820 c0 -5 5 -10 11 -10 5 0 7 5 4 10 -3 6 -8 10 -11 10 -2 0
-4 -4 -4 -10z"/>
<path d="M1200 1810 c0 -5 5 -10 10 -10 6 0 10 5 10 10 0 6 -4 10 -10 10 -5 0
-10 -4 -10 -10z"/>
<path d="M1256 1811 c-4 -5 -2 -12 3 -15 5 -4 12 -2 15 3 4 5 2 12 -3 15 -5 4
-12 2 -15 -3z"/>
<path d="M1132 1801 c4 -13 18 -16 19 -4 0 4 -5 9 -11 12 -7 2 -11 -2 -8 -8z"/>
<path d="M1380 1786 c0 -14 5 -26 10 -26 6 0 10 9 10 19 0 11 -4 23 -10 26 -6
4 -10 -5 -10 -19z"/>
<path d="M1321 1774 c0 -11 3 -14 6 -6 3 7 2 16 -1 19 -3 4 -6 -2 -5 -13z"/>
<path d="M1430 1761 c0 -6 5 -13 10 -16 6 -3 10 1 10 9 0 9 -4 16 -10 16 -5 0
-10 -4 -10 -9z"/>
<path d="M1206 1741 c-4 -7 -5 -15 -2 -18 9 -9 19 4 14 18 -4 11 -6 11 -12 0z"/>
<path d="M1260 1740 c0 -5 5 -10 10 -10 6 0 10 5 10 10 0 6 -4 10 -10 10 -5 0
-10 -4 -10 -10z"/>
<path d="M1392 1710 c0 -14 2 -19 5 -12 2 6 2 18 0 25 -3 6 -5 1 -5 -13z"/>
<path d="M1330 1698 c0 -16 5 -28 10 -28 13 0 13 20 0 40 -8 12 -10 9 -10 -12z"/>
<path d="M2175 1710 c-3 -5 -1 -10 4 -10 6 0 11 5 11 10 0 6 -2 10 -4 10 -3 0
-8 -4 -11 -10z"/>
<path d="M1780 1521 c0 -13 29 -35 37 -28 7 8 -15 37 -28 37 -5 0 -9 -4 -9 -9z"/>
<path d="M1990 1520 c0 -5 5 -10 11 -10 5 0 7 5 4 10 -3 6 -8 10 -11 10 -2 0
-4 -4 -4 -10z"/>
<path d="M1865 1510 c3 -5 8 -10 11 -10 2 0 4 5 4 10 0 6 -5 10 -11 10 -5 0
-7 -4 -4 -10z"/>
<path d="M2030 1460 c0 -5 5 -10 11 -10 5 0 7 5 4 10 -3 6 -8 10 -11 10 -2 0
-4 -4 -4 -10z"/>
<path d="M1840 1440 c0 -5 5 -10 10 -10 6 0 10 5 10 10 0 6 -4 10 -10 10 -5 0
-10 -4 -10 -10z"/>
<path d="M1895 1440 c3 -5 8 -10 11 -10 2 0 4 5 4 10 0 6 -5 10 -11 10 -5 0
-7 -4 -4 -10z"/>
<path d="M1965 1440 c3 -5 8 -10 11 -10 2 0 4 5 4 10 0 6 -5 10 -11 10 -5 0
-7 -4 -4 -10z"/>
<path d="M2005 1410 c3 -5 11 -10 16 -10 6 0 7 5 4 10 -3 6 -11 10 -16 10 -6
0 -7 -4 -4 -10z"/>
<path d="M1880 1402 c0 -5 7 -15 15 -22 8 -7 15 -8 15 -2 0 5 -7 15 -15 22 -8
7 -15 8 -15 2z"/>
<path d="M1948 1388 c12 -12 25 -18 29 -14 4 4 -1 14 -11 22 -31 22 -43 17
-18 -8z"/>
<path d="M1825 1370 c3 -5 8 -10 11 -10 2 0 4 5 4 10 0 6 -5 10 -11 10 -5 0
-7 -4 -4 -10z"/>
<path d="M1865 1330 c3 -5 11 -10 16 -10 6 0 7 5 4 10 -3 6 -11 10 -16 10 -6
0 -7 -4 -4 -10z"/>
<path d="M1815 1310 c3 -5 8 -10 11 -10 2 0 4 5 4 10 0 6 -5 10 -11 10 -5 0
-7 -4 -4 -10z"/>
<path d="M1580 1260 c0 -11 5 -20 10 -20 6 0 10 9 10 20 0 11 -4 20 -10 20 -5
0 -10 -9 -10 -20z"/>
<path d="M1635 1220 c3 -5 8 -10 11 -10 2 0 4 5 4 10 0 6 -5 10 -11 10 -5 0
-7 -4 -4 -10z"/>
<path d="M1945 1217 c-4 -10 -5 -21 -1 -24 10 -10 18 4 13 24 -4 17 -4 17 -12
0z"/>
<path d="M1907 1207 c-11 -29 -9 -43 4 -30 6 6 9 19 7 29 -3 18 -4 18 -11 1z"/>
<path d="M1416 1202 c-2 -4 -1 -14 5 -22 7 -12 9 -10 9 8 0 23 -5 28 -14 14z"/>
<path d="M1770 1189 c0 -5 5 -7 10 -4 6 3 10 8 10 11 0 2 -4 4 -10 4 -5 0 -10
-5 -10 -11z"/>
<path d="M1861 1184 c0 -11 3 -14 6 -6 3 7 2 16 -1 19 -3 4 -6 -2 -5 -13z"/>
<path d="M1570 1170 c0 -11 5 -20 10 -20 6 0 10 9 10 20 0 11 -4 20 -10 20 -5
0 -10 -9 -10 -20z"/>
<path d="M1701 1164 c0 -11 3 -14 6 -6 3 7 2 16 -1 19 -3 4 -6 -2 -5 -13z"/>
<path d="M1501 1144 c0 -11 3 -14 6 -6 3 7 2 16 -1 19 -3 4 -6 -2 -5 -13z"/>
<path d="M1940 1129 c0 -11 5 -17 10 -14 6 3 10 13 10 21 0 8 -4 14 -10 14 -5
0 -10 -9 -10 -21z"/>
<path d="M1620 1116 c0 -9 5 -16 10 -16 6 0 10 4 10 9 0 6 -4 13 -10 16 -5 3
-10 -1 -10 -9z"/>
<path d="M1848 1105 c-3 -14 -1 -25 3 -25 5 0 9 11 9 25 0 14 -2 25 -4 25 -2
0 -6 -11 -8 -25z"/>
<path d="M1898 1114 c-14 -21 -22 -154 -10 -154 6 0 14 15 17 33 8 41 2 135
-7 121z"/>
<path d="M1370 1095 c0 -8 5 -15 10 -15 6 0 10 7 10 15 0 8 -4 15 -10 15 -5 0
-10 -7 -10 -15z"/>
<path d="M1690 1059 c0 -11 5 -17 10 -14 6 3 10 13 10 21 0 8 -4 14 -10 14 -5
0 -10 -9 -10 -21z"/>
<path d="M1621 1031 c-1 -27 2 -32 11 -23 8 8 8 17 0 34 -10 22 -11 21 -11
-11z"/>
<path d="M1430 1034 c0 -8 5 -12 10 -9 6 4 8 11 5 16 -9 14 -15 11 -15 -7z"/>
<path d="M1500 1030 c0 -5 5 -10 10 -10 6 0 10 5 10 10 0 6 -4 10 -10 10 -5 0
-10 -4 -10 -10z"/>
<path d="M1768 1015 c-14 -44 -16 -72 -9 -105 l8 -35 7 35 c9 44 4 134 -6 105z"/>
<path d="M1190 1000 c0 -5 5 -10 10 -10 6 0 10 5 10 10 0 6 -4 10 -10 10 -5 0
-10 -4 -10 -10z"/>
<path d="M1365 980 c-3 -5 -1 -10 4 -10 6 0 11 5 11 10 0 6 -2 10 -4 10 -3 0
-8 -4 -11 -10z"/>
<path d="M1820 953 c0 -22 2 -25 10 -13 13 20 13 40 0 40 -5 0 -10 -12 -10
-27z"/>
<path d="M872 945 c0 -16 2 -22 5 -12 2 9 2 23 0 30 -3 6 -5 -1 -5 -18z"/>
<path d="M1500 950 c0 -5 5 -10 10 -10 6 0 10 5 10 10 0 6 -4 10 -10 10 -5 0
-10 -4 -10 -10z"/>
<path d="M680 930 c0 -11 5 -20 10 -20 6 0 10 9 10 20 0 11 -4 20 -10 20 -5 0
-10 -9 -10 -20z"/>
<path d="M1702 930 c0 -14 2 -19 5 -12 2 6 2 18 0 25 -3 6 -5 1 -5 -13z"/>
<path d="M1130 920 c0 -19 3 -21 12 -12 9 9 9 15 0 24 -9 9 -12 7 -12 -12z"/>
<path d="M1430 921 c0 -11 4 -22 9 -25 11 -7 20 14 13 32 -7 19 -22 14 -22 -7z"/>
<path d="M1060 910 c0 -11 5 -20 10 -20 6 0 10 9 10 20 0 11 -4 20 -10 20 -5
0 -10 -9 -10 -20z"/>
<path d="M930 895 c0 -14 5 -25 10 -25 6 0 10 11 10 25 0 14 -4 25 -10 25 -5
0 -10 -11 -10 -25z"/>
<path d="M1571 894 c0 -11 3 -14 6 -6 3 7 2 16 -1 19 -3 4 -6 -2 -5 -13z"/>
<path d="M1266 875 c-6 -18 2 -45 15 -45 12 0 12 47 0 54 -5 3 -11 -1 -15 -9z"/>
<path d="M1816 875 c-9 -25 -7 -65 4 -65 14 0 23 46 12 65 -8 16 -9 16 -16 0z"/>
<path d="M610 854 c0 -8 5 -12 10 -9 6 4 8 11 5 16 -9 14 -15 11 -15 -7z"/>
<path d="M860 776 c0 -86 9 -122 24 -97 9 14 -6 191 -15 191 -5 0 -9 -42 -9
-94z"/>
<path d="M315 851 c-3 -5 -1 -12 5 -16 5 -3 10 1 10 9 0 18 -6 21 -15 7z"/>
<path d="M680 781 c0 -47 4 -81 10 -81 6 0 10 31 10 74 0 41 -4 78 -10 81 -6
4 -10 -23 -10 -74z"/>
<path d="M796 792 c-7 -72 0 -115 15 -90 11 17 11 158 0 158 -4 0 -11 -31 -15
-68z"/>
<path d="M1505 850 c-3 -5 -1 -10 4 -10 6 0 11 5 11 10 0 6 -2 10 -4 10 -3 0
-8 -4 -11 -10z"/>
<path d="M1060 766 c0 -47 5 -88 10 -91 6 -4 10 25 10 79 0 47 -4 88 -10 91
-6 4 -10 -25 -10 -79z"/>
<path d="M740 820 c0 -19 3 -21 12 -12 9 9 9 15 0 24 -9 9 -12 7 -12 -12z"/>
<path d="M997 826 c-3 -8 -2 -18 3 -21 13 -8 24 15 12 27 -6 6 -11 4 -15 -6z"/>
<path d="M1137 833 c-4 -3 -7 -11 -7 -17 0 -6 5 -5 12 2 6 6 9 14 7 17 -3 3
-9 2 -12 -2z"/>
<path d="M1330 824 c0 -8 5 -12 10 -9 6 4 8 11 5 16 -9 14 -15 11 -15 -7z"/>
<path d="M1686 802 c-7 -47 -8 -160 0 -189 14 -52 22 -16 22 97 0 120 -10 163
-22 92z"/>
<path d="M420 815 c0 -8 5 -15 10 -15 6 0 10 7 10 15 0 8 -4 15 -10 15 -5 0
-10 -7 -10 -15z"/>
<path d="M930 746 c0 -80 11 -115 24 -80 8 20 8 93 0 133 -12 58 -24 31 -24
-53z"/>
<path d="M1572 810 c0 -14 2 -19 5 -12 2 6 2 18 0 25 -3 6 -5 1 -5 -13z"/>
<path d="M1371 798 c1 -12 5 -36 9 -53 5 -23 8 -26 14 -13 11 24 3 81 -11 86
-8 2 -13 -5 -12 -20z"/>
<path d="M546 794 c-9 -23 5 -145 15 -138 12 7 12 141 0 148 -5 3 -12 -1 -15
-10z"/>
<path d="M1192 783 c4 -39 28 -42 28 -4 0 21 -5 31 -16 31 -11 0 -14 -8 -12
-27z"/>
<path d="M1440 800 c0 -5 5 -10 10 -10 6 0 10 5 10 10 0 6 -4 10 -10 10 -5 0
-10 -4 -10 -10z"/>
<path d="M610 785 c0 -8 5 -15 10 -15 6 0 10 7 10 15 0 8 -4 15 -10 15 -5 0
-10 -7 -10 -15z"/>
<path d="M310 714 c0 -47 4 -73 10 -69 6 3 10 37 10 76 0 39 -4 69 -10 69 -6
0 -10 -32 -10 -76z"/>
<path d="M371 774 c0 -11 3 -14 6 -6 3 7 2 16 -1 19 -3 4 -6 -2 -5 -13z"/>
<path d="M1265 747 c-8 -52 -4 -81 10 -79 13 2 19 102 6 115 -6 6 -12 -6 -16
-36z"/>
<path d="M1500 730 c0 -33 4 -60 9 -60 12 0 17 43 12 88 -6 55 -21 35 -21 -28z"/>
<path d="M1753 764 c-3 -8 -1 -20 6 -27 8 -8 11 -4 11 16 0 30 -7 35 -17 11z"/>
<path d="M190 755 c0 -8 5 -15 10 -15 6 0 10 7 10 15 0 8 -4 15 -10 15 -5 0
-10 -7 -10 -15z"/>
<path d="M1620 700 c0 -40 4 -70 10 -70 6 0 10 30 10 70 0 40 -4 70 -10 70 -6
0 -10 -30 -10 -70z"/>
<path d="M420 695 c0 -37 4 -65 10 -65 6 0 10 28 10 65 0 37 -4 65 -10 65 -6
0 -10 -28 -10 -65z"/>
<path d="M995 738 c-3 -13 -4 -43 -1 -68 2 -25 4 -53 5 -62 1 -10 6 -18 11
-18 13 0 13 157 0 165 -5 3 -12 -4 -15 -17z"/>
<path d="M1125 706 c-8 -59 1 -120 16 -110 12 7 12 151 0 159 -5 3 -13 -19
-16 -49z"/>
<path d="M1332 695 c2 -38 7 -70 12 -70 13 0 8 117 -5 130 -7 7 -9 -14 -7 -60z"/>
<path d="M250 736 c0 -9 5 -16 10 -16 6 0 10 4 10 9 0 6 -4 13 -10 16 -5 3
-10 -1 -10 -9z"/>
<path d="M738 733 c-7 -32 3 -163 13 -163 5 0 9 41 9 90 0 50 -4 90 -9 90 -5
0 -10 -8 -13 -17z"/>
<path d="M1436 742 c-8 -13 6 -132 15 -132 12 0 11 127 0 135 -5 3 -12 2 -15
-3z"/>
<path d="M1567 743 c-9 -8 -9 -140 -1 -170 12 -45 24 -10 24 70 0 79 -9 115
-23 100z"/>
<path d="M1810 726 c0 -9 5 -16 10 -16 6 0 10 4 10 9 0 6 -4 13 -10 16 -5 3
-10 -1 -10 -9z"/>
<path d="M360 666 c0 -67 10 -117 21 -110 17 10 6 164 -12 164 -5 0 -9 -24 -9
-54z"/>
<path d="M610 639 c0 -60 3 -80 13 -76 6 2 12 11 11 20 0 10 -1 44 -2 77 -3
91 -22 73 -22 -21z"/>
<path d="M190 661 c0 -28 5 -53 10 -56 6 -4 10 15 10 49 0 31 -4 56 -10 56 -5
0 -10 -22 -10 -49z"/>
<path d="M480 647 c0 -69 6 -97 21 -97 15 0 6 153 -8 158 -10 3 -13 -14 -13
-61z"/>
<path d="M1750 611 c0 -87 12 -123 25 -80 9 28 -4 169 -16 169 -5 0 -9 -40 -9
-89z"/>
<path d="M130 675 c0 -8 5 -15 10 -15 6 0 10 7 10 15 0 8 -4 15 -10 15 -5 0
-10 -7 -10 -15z"/>
<path d="M1197 684 c-10 -11 -9 -72 3 -79 14 -8 24 42 14 66 -5 11 -13 17 -17
13z"/>
<path d="M247 673 c-2 -4 -2 -34 1 -66 6 -76 28 -72 24 4 -4 52 -14 80 -25 62z"/>
<path d="M1387 663 c-11 -10 -8 -43 3 -43 6 0 10 11 10 25 0 26 -2 29 -13 18z"/>
<path d="M680 646 c0 -9 5 -16 10 -16 6 0 10 4 10 9 0 6 -4 13 -10 16 -5 3
-10 -1 -10 -9z"/>
<path d="M860 610 c0 -28 13 -40 24 -22 7 12 -5 52 -15 52 -5 0 -9 -13 -9 -30z"/>
<path d="M1065 621 c-8 -26 1 -39 16 -24 8 8 8 17 1 29 -9 16 -10 15 -17 -5z"/>
<path d="M1500 620 c0 -11 5 -20 10 -20 6 0 10 9 10 20 0 11 -4 20 -10 20 -5
0 -10 -9 -10 -20z"/>
<path d="M800 606 c0 -14 5 -26 10 -26 6 0 10 9 10 19 0 11 -4 23 -10 26 -6 4
-10 -5 -10 -19z"/>
<path d="M135 610 c-9 -14 4 -70 16 -70 12 0 12 67 0 75 -5 3 -13 1 -16 -5z"/>
<path d="M1265 610 c3 -5 8 -10 11 -10 2 0 4 5 4 10 0 6 -5 10 -11 10 -5 0 -7
-4 -4 -10z"/>
<path d="M80 581 c0 -21 5 -31 16 -31 11 0 14 8 12 27 -4 39 -28 42 -28 4z"/>
<path d="M550 585 c0 -14 5 -25 10 -25 6 0 10 11 10 25 0 14 -4 25 -10 25 -5
0 -10 -11 -10 -25z"/>
<path d="M930 596 c0 -9 5 -16 10 -16 6 0 10 4 10 9 0 6 -4 13 -10 16 -5 3
-10 -1 -10 -9z"/>
<path d="M426 584 c-4 -10 -2 -22 3 -27 7 -7 13 -5 17 7 4 10 2 22 -3 27 -7 7
-13 5 -17 -7z"/>
<path d="M314 577 c-8 -21 2 -35 16 -21 5 5 6 15 0 24 -8 12 -10 12 -16 -3z"/>
<path d="M680 580 c0 -5 5 -10 10 -10 6 0 10 5 10 10 0 6 -4 10 -10 10 -5 0
-10 -4 -10 -10z"/>
<path d="M1627 555 c-4 -25 4 -40 17 -28 9 9 7 41 -3 47 -5 3 -11 -6 -14 -19z"/>
<path d="M197 556 c-3 -8 -2 -18 3 -21 13 -8 24 15 12 27 -6 6 -11 4 -15 -6z"/>
<path d="M1690 540 c0 -5 5 -10 10 -10 6 0 10 5 10 10 0 6 -4 10 -10 10 -5 0
-10 -4 -10 -10z"/>
<path d="M1690 481 c0 -6 5 -13 10 -16 6 -3 10 1 10 9 0 9 -4 16 -10 16 -5 0
-10 -4 -10 -9z"/>
<path d="M1755 460 c-9 -14 4 -52 16 -45 12 8 12 42 0 50 -5 3 -12 1 -16 -5z"/>
</g>
</svg>
