<svg version="1.1" xmlns="http://www.w3.org/2000/svg" viewBox="0 0 456.1007080078125 475.5771942138672" width="912.201416015625" height="951.1543884277344">
  <!-- svg-source:excalidraw -->
  
  <defs>
    <style>
      @font-face {
        font-family: "Virgil";
        src: url("https://excalidraw.com/Virgil.woff2");
      }
      @font-face {
        font-family: "Cascadia";
        src: url("https://excalidraw.com/Cascadia.woff2");
      }
    </style>
  </defs>
  <g transform="translate(136.76846313476562 10) rotate(0 135.14926147460938 46.55387878417969)"><path d="M-0.041995415038799576 -1.273187335843229 C56.61989517691367 0.6748947854790462, 109.87201392740764 -1.7445259589878825, 269.0342206856231 1.1175307538586081 M0.5754632090013166 -0.27121155277027686 C80.72062051936945 -1.4139678151328507, 162.32225218468227 -0.9779848315833275, 269.9447742904963 0.2068991942278995 M268.95586648769665 0.6299458723515272 C269.8707163730414 32.63095912986479, 270.35001871974777 64.09766872221692, 272.0021109301596 95.00318556837738 M269.649291246198 0.9364634910598397 C270.80147453995284 19.976384652719375, 270.7773370728069 38.41256226121729, 270.97437029983837 92.93521933350712 M271.4670894481173 92.38282031474685 C206.10519907205108 93.96372923867987, 141.60425209599762 95.64475664103752, 1.2021642411840936 92.21696389864701 M270.7384969869968 93.71908770092648 C166.41711943549072 93.01786324337547, 62.92053872558845 92.91186509295675, 0.7103077224916624 93.7133486303858 M-0.514250485226512 93.72258519940078 C-2.3626239902812345 69.21000461449988, 0.19399082590757788 48.541416262875345, 0.8069001156836748 1.8754841666668653 M0.32464113738387823 93.86010022554547 C-0.37202364340953553 67.04396527776227, -0.6413297964685413 41.7796653900987, 0.423979758284986 -0.07308782543987036" stroke="#000000" stroke-width="1" fill="none"></path></g><g transform="translate(164.61416625976562 40.808349609375) rotate(0 105 12.5)"><text x="0" y="18" font-family="Virgil, Segoe UI Emoji" font-size="20px" fill="#000000" text-anchor="start" style="white-space: pre;" direction="ltr">context.Background()</text></g><g transform="translate(97.95028686523438 174.48165893554688) rotate(0 24.575469970703125 21.792770385742188)"><path d="M-1.554144086316228 -0.08919057063758373 C8.953117527577303 0.8481923889300236, 21.097645300528452 -1.4672516632893673, 48.90643501095474 1.5025021750479937 M0.03308658394962549 -0.877506167627871 C12.881754151905575 0.5184796765096559, 26.04138153584053 0.1351846471078767, 49.19401379022747 -0.7822435507550836 M50.3689370136708 1.9366752821952105 C50.44499426342792 16.165960610532792, 51.0940440819437 28.926955609890882, 47.859116254374385 41.96434405632317 M48.88232989702374 -0.07545238826423883 C49.03643071463723 12.168625862795707, 48.676575509816594 22.959395054712587, 49.587401733733714 44.03271821048111 M49.37687033228576 45.471438916400075 C34.05893353780633 42.315443635581516, 24.533902550822024 44.05533939659455, 0.4539617281407118 44.77211985178292 M48.79093848261982 43.95512369181961 C31.203527241054378 44.091340222666815, 13.350232553749187 43.50901908547695, -0.8552002748474479 44.21307361032814 M1.7813624124974012 43.73055443353951 C0.09804899170515086 30.844552237948108, -1.3688489131677435 18.719385689939717, -0.6817702669650316 -1.7325566690415144 M-0.22067139949649572 43.556415676139295 C0.20446139451338158 31.90769139799682, 0.3459089088089596 19.17449350993003, -0.24020703043788671 0.9664337327703834" stroke="#c92a2a" stroke-width="1" fill="none"></path></g><g transform="translate(247.135986328125 179.54112243652344) rotate(0 24.575469970703125 21.792770385742188)"><path d="M1.8858981449157 -1.8106467742472887 C17.240385039666712 1.8901584127557414, 37.95110553121948 0.39843827277542515, 50.33751902170479 1.3587850909680128 M0.3695829203352332 0.13714750204235315 C19.69886550656334 0.5453571179276917, 38.568338789507756 -0.6782561740511444, 49.77847278025001 -0.36233617272228 M49.295953603461385 -0.04551893658936024 C47.83986779806898 10.127566107037948, 47.21110167858885 22.598195630035374, 47.418383272364736 43.34256946854293 M49.12181484606117 0.10252259764820337 C50.13914063940146 12.300244374737312, 49.95210320124724 23.872341495149175, 50.11737367417663 44.30825533065945 M48.503450544551015 44.62486517243087 C34.8745031315028 43.798879293024726, 19.803571541818844 45.16044971090574, -1.9725370686501265 43.24869996123016 M49.06353709008545 44.562504664994776 C32.551807312414205 43.669442590066296, 17.30652555567802 43.91173162657867, 0.9361396422609687 43.982212350703776 M1.7113308627158403 43.23761492781341 C1.1478516473141545 33.08139300109893, -0.7316049323710567 17.91741770219207, 0.2496579010039568 -0.7634606380015612 M-0.10642832610756159 44.18381123337895 C-1.055087669909439 32.83032022896422, 0.3515123583670047 21.942330056153494, 0.11730852629989386 0.5998730221763253" stroke="#000000" stroke-width="1" fill="none"></path></g><g transform="translate(385.3876953125 181.76100158691406) rotate(0 24.575469970703125 21.792770385742188)"><path d="M0.20504519529640675 1.7366221528500319 C16.585204419926907 1.3768625346625283, 31.714114331202914 1.9471827236617043, 50.5963690597564 0.30897188000380993 M0.519662200473249 0.61407904420048 C10.977578848713307 0.9900342607983514, 22.4264003049978 -0.8271449720374182, 48.98251953627914 0.17862410936504602 M51.10486772842705 -1.9517927188426256 C49.789565116075465 13.46796224652957, 50.274143189100215 31.199971163928133, 49.94428309984505 43.053141770884395 M48.97697701957077 0.6358000794425607 C49.486758615745096 14.009219136754936, 47.86247962333062 28.75112364481194, 48.76920962240547 43.08131228480488 M50.347480865195394 41.81247299723327 C32.75036442097267 44.57336253114039, 16.084249639957953 43.767847301438394, 1.1997460443526506 44.526847718283534 M48.85354900266975 44.22753702197224 C29.71518123998998 44.08296677849048, 10.834991234573394 44.36285442492717, 0.6141644408926368 43.91726709995419 M-1.88956412486732 44.43566930107772 C0.8727713598531582 25.488714298854354, -1.6036681757646702 8.880746647094853, 0.8597671706229448 1.8210931401699781 M0.5015204837545753 44.48081208858639 C-0.5734773539493326 26.98929022029705, 0.43756813178560694 9.76011366603359, -0.665507853962481 -0.7296186229214072" stroke="#000000" stroke-width="1" fill="none"></path></g><g transform="translate(10 295.02479553222656) rotate(0 24.575469970703125 21.792770385742188)"><path d="M1.523203132674098 -1.461582688614726 C18.143863114715128 -2.0526107333433496, 37.253779001907525 0.391205392049564, 47.449257312342525 -1.9221875350922346 M0.993484572507441 0.49379950668662786 C10.236279706882982 0.05397828595356774, 20.975856190440652 -0.8057943664340512, 49.96050785575062 0.6527933171018958 M50.30984586291015 1.5477369148284197 C47.66949042702664 16.061728123375644, 50.822799355039486 34.81110331934963, 48.486630557104945 44.707251163199544 M48.369092212058604 -0.5717433402314782 C48.44000948668044 8.86106505109796, 48.44074140191596 17.087848318831206, 48.49088634643704 44.13845801260322 M50.041631339117885 42.149999709799886 C36.05114395493933 41.88895696952888, 21.717270874349637 45.80058849409171, -0.8739320654422045 42.01080981083214 M49.872455016709864 43.839740752242506 C39.410396064678075 42.43666779964307, 28.143665825109668 42.96167030899861, -0.15551490988582373 42.725325672887266 M0.6455004792660475 42.53917542286217 C-1.0015409100467916 29.829391372179714, -0.6129834163601154 14.384898535486517, 0.5475621204823256 -0.628882197663188 M-0.26800294127315283 42.815562575124204 C0.4713694938334166 33.05444950787465, 0.5858919211538969 21.774506141247656, -0.8458528956398368 -0.16512543056160212" stroke="#c92a2a" stroke-width="1" fill="none"></path></g><g transform="translate(144.3646240234375 296.16566467285156) rotate(0 24.575469970703125 21.792770385742188)"><path d="M0.06288114376366138 -0.6643093843013048 C12.939109422668611 -2.3998337106199275, 23.23028711868782 1.3701076789407722, 47.58724448271096 -1.1434866804629564 M-0.7051575491204858 -0.660053594969213 C12.237195104455129 0.17388671661816657, 22.646435232090802 0.8273467126031977, 49.59628564026207 -0.7177705308422446 M51.109613390639424 -0.8739320654422045 C47.15060531166761 13.41109641064044, 48.89378361967771 29.6205004207807, 50.59397009201348 44.093940733000636 M48.74286562111229 -0.15551490988582373 C47.884038260792984 15.756435619991871, 48.51435502490927 30.97641627834857, 49.473690181039274 43.062358097173274 M50.95683887787163 44.1331028919667 C36.484361803867664 42.6377085976626, 24.667678873540456 43.15669249820963, -0.5360058825463057 42.04558437876403 M50.12397041823715 42.73968787584454 C32.360590183594866 43.06016521634317, 15.708323497231397 43.698448439256914, 0.377285479567945 43.53292499575764 M0.8582807499915361 41.65562361292541 C0.7295069441507885 28.54541799789191, -1.7948509111691884 17.390227565353523, -1.5420022886246443 -1.9924742002040148 M0.33033823873847723 43.34266291651875 C-0.09634651366240543 28.416882402628826, 0.7629836934470459 11.284788755499157, 0.8204687526449561 0.8471589246764779" stroke="#c92a2a" stroke-width="1" fill="none"></path></g><g transform="translate(390.19281005859375 304.3856964111328) rotate(0 24.575469970703125 21.792770385742188)"><path d="M-1.10328802280128 -0.8161486405879259 C15.683668961385179 -1.2618141650460113, 33.1033488001859 -0.0011806368134369416, 50.30593249388039 0.6455004792660475 M-0.35659292433410883 0.9029494682326913 C12.447571022318114 -0.7438043414766213, 23.961298224280394 -0.6332978367025277, 49.02415019180626 -0.26800294127315283 M50.14495179243386 1.9460609536617994 C47.62594165117583 9.389419763261087, 47.778330164264055 19.05500566941799, 48.88818910904229 44.340111730620265 M49.20576435234398 0.42914037499576807 C48.26613076717603 13.330753127735997, 48.649606100628255 24.91490772770523, 49.930439620278776 42.81453962717205 M48.35677078552544 44.24621724896133 C38.81650123650457 43.82887721948562, 30.837299268660455 45.54753763370452, -1.159419922158122 45.22647827677429 M48.15872278716415 44.27128835115582 C29.963210536425724 43.79453641051879, 10.777737615216104 43.30099895472159, -0.10143566224724054 43.184688434936106 M0.37964210100471973 45.289398370310664 C-0.744954887343475 28.511369126005285, -1.6003369125853268 15.298706626695019, 1.0175365526229143 1.5069316606968641 M0.8475887766107917 43.543376551009715 C0.9309918213203727 27.2006084670982, -0.10202721473423848 12.869788968696938, -0.6049534389749169 0.2925472417846322" stroke="#000000" stroke-width="1" fill="none"></path></g><g transform="translate(396.94976806640625 421.9916534423828) rotate(0 24.575469970703125 21.792770385742188)"><path d="M1.7038575988262892 -1.0898470561951399 C10.84872093687223 -2.038527911965553, 23.558951019913287 0.924237722094353, 50.657871602103114 1.0981934983283281 M-0.0421642204746604 0.6909134676679969 C11.121942320376133 -0.7587034189286845, 24.29799744673718 -1.0215512895169871, 49.44348718319088 -0.45209181401878595 M50.882000802084804 0.03880581445991993 C50.25587867759953 7.571021120254418, 50.946481993429764 16.732236136131924, 49.172621784731746 42.18979993648827 M48.494886175729334 -0.3713229903951287 C48.583680772475745 10.019989432644653, 47.90687572329476 19.10368371451012, 49.629967854358256 42.7419268777594 M48.51547962240875 45.28048244304955 C35.359081742052915 43.69041359711665, 18.6658777551297 44.85280615378398, 0.008613346144557 43.360372515395284 M48.56328670773655 42.97629830148071 C36.35804634275997 42.922508848147714, 26.029317551574888 44.257631940083826, 0.7043965617194772 43.51197153236717 M0.8808443527668715 42.82329318113625 C1.2194149212658394 25.589921649788803, -1.6509978456676018 11.597488305086863, -0.867051662877202 -1.450818745419383 M-0.14271823968738317 44.43339282181114 C0.5587895961394489 31.534351406968163, -0.48206917923782466 20.192621050169617, -0.45331336464732885 0.11057510878890753" stroke="#000000" stroke-width="1" fill="none"></path></g><g><g transform="translate(129.1211357879639 171.32064254172144) rotate(0 21.78338554259392 -33.44684576448053)"><path d="M1.0822120618075133 1.0584355104714633 C8.204590831523134 -10.141083201703921, 36.37943900736666 -56.62523367820926, 43.37553642027076 -67.9521270394325 M0.19123466491699226 0.568510208129883 C7.146777585347487 -10.45428934634973, 35.674708544413214 -55.949410904111936, 42.71126708984371 -66.97697608359155" stroke="#000000" stroke-width="1" fill="none"></path></g></g><g><g transform="translate(270.75064398758116 180.7491655498743) rotate(0 -1.8915152395144332 -38.2595080396533)"><path d="M-0.11834404952824107 -0.5856147777289152 C-0.7326874614382821 -13.257666102672617, -3.2502579498415383 -63.707571877663334, -3.6646864295006027 -76.28592851571739 M-1.6396134048700333 1.7213335186243057 C-1.8923052126045066 -11.306132647494474, -1.1992463212584643 -64.9352485441168, -1.4834731631726252 -78.2403495979309" stroke="#000000" stroke-width="1" fill="none"></path></g></g><g><g transform="translate(405.1704906046391 177.26689417250452) rotate(0 -24.101660820282973 -35.47741181310266)"><path d="M-0.4115607786923646 0.7496517408639192 C-8.651733678455162 -11.124384149846929, -41.51297932652139 -59.865027717935526, -49.77655272372071 -71.70447536706922 M1.5732310831546785 0.0976149594783784 C-6.252176980773615 -11.583030363929764, -39.26652785678708 -58.42613217300423, -47.4640269851685 -70.47454971320924" stroke="#000000" stroke-width="1" fill="none"></path></g></g><g><g transform="translate(52.479217529296875 296.2686767578125) rotate(0 33.015810667388166 -37.985778423063465)"><path d="M-1.078130667284131 -0.8454404722899198 C9.81762585155666 -13.618092832093435, 53.661072380468255 -64.35298903497556, 64.74274236671627 -77.29665618054568 M0.5567120030522346 1.3250993344187738 C11.902238631546497 -11.174589942594368, 56.42711264163256 -62.51354237268368, 67.10975200206042 -75.69454848319292" stroke="#c92a2a" stroke-width="1" fill="none"></path></g></g><g><g transform="translate(169.18820190429688 296.408203125) rotate(0 -22.21542655467988 -38.320308406278485)"><path d="M-1.0042615938931703 0.8886011827737093 C-8.513609012837211 -12.087366021797063, -37.2359475740542 -64.35888395421208, -44.60770916230977 -77.5292179953307 M0.6693623399734498 0.309512858390808 C-6.961316014925639 -12.52206383228302, -37.3429501803716 -63.241693501472476, -45.10021544933319 -76.1801989030838" stroke="#c92a2a" stroke-width="1" fill="none"></path></g></g><g><g transform="translate(414.5315856933594 303.9710693359375) rotate(0 -2.769316874928677 -38.699186093024906)"><path d="M0.8804484676569702 0.9279822696000337 C-0.1882346599052349 -11.783373754347364, -4.790123773490389 -63.6051974983265, -6.012908082082868 -76.534663034603 M-0.11645481616258624 0.3695690158009528 C-1.2877765292922656 -12.668950935701528, -5.286350897451241 -65.14469821264346, -6.419082217514514 -78.32635445564985" stroke="#000000" stroke-width="1" fill="none"></path></g></g><g><g transform="translate(424.4951678503305 423.9721507143229) rotate(0 -4.758985728584207 -38.203656735457486)"><path d="M-0.18192565552890305 -0.13331803567707534 C-1.931248777049291 -12.777567694646608, -8.150705452946363 -63.64217291555053, -9.336045801639603 -76.27399543523784 M-1.7365753540210427 -1.2489139497466386 C-3.222464160217601 -13.725328612135096, -6.184193470024852 -62.9022453112962, -7.146413853522436 -75.17022787148129" stroke="#000000" stroke-width="1" fill="none"></path></g></g><g transform="translate(147.6754150390625 413.62794494628906) rotate(0 24.575469970703125 21.792770385742188)"><path d="M-1.0815605204552412 -0.007882894948124886 C13.89456419416742 1.2669527296983012, 27.46331166574809 -0.5152012939490072, 49.43780365772545 -0.8015495557337999 M-0.21747946832329035 0.048584566451609135 C14.957336671917943 -0.7174547742244209, 31.50092627254736 0.5821243394974266, 49.171805708669126 -0.7885484537109733 M47.70457259006798 -1.5984164495021105 C48.117420117543205 13.672413694423122, 49.75409398524569 26.534672595062222, 51.121369095519185 42.17123895697296 M49.661395638249815 0.20694233570247889 C48.381571295528836 8.550063648779096, 48.48632863429112 18.525403322756592, 49.48644035961479 44.5262281158939 M50.5904543120414 42.38372570089996 C33.989481619093254 45.28511232508831, 21.452445159665615 42.74943733586483, 1.426472695544362 44.84902739338577 M48.919916092418134 43.833326266147196 C30.9272893263273 44.072101159380395, 11.863677719843402 43.0618868008122, 0.8099623015150428 43.2757972041145 M1.4294171649962664 42.98151230625808 C-1.168653904812928 28.01757955800145, 0.888594151121978 14.757746464896186, 1.6509049851447344 -1.165462078526616 M0.7910836031660438 43.982149199582636 C0.4807508919361825 26.71826028300301, -0.7805100645896201 8.99998084060551, 0.2778390636667609 -0.4305577417835593" stroke="#c92a2a" stroke-width="1" fill="none"></path></g><g><g transform="translate(172.32806261517703 408.2483743894845) rotate(0 -0.26523979120253216 -34.65298335012048)"><path d="M0.5995218705385923 0.3202127683907747 C0.5883278544361397 -11.195428467728199, -0.5179824835980907 -58.178915536589926, -0.7019910596370667 -69.62617946863175 M-0.5448678767681121 -0.5572794735431672 C-0.5718633106981709 -11.883160666041077, -1.1130585092479959 -56.81374968316406, -1.1300014529436795 -68.45587477214634" stroke="#c92a2a" stroke-width="1" fill="none"></path></g></g></svg>