<svg version="1.1" xmlns="http://www.w3.org/2000/svg" viewBox="0 0 525.9254508939055 342.24770272477633" width="1051.850901787811" height="684.4954054495527">
  <!-- svg-source:excalidraw -->
  
  <defs>
    <style>
      @font-face {
        font-family: "Virgil";
        src: url("https://excalidraw.com/Virgil.woff2");
      }
      @font-face {
        font-family: "Cascadia";
        src: url("https://excalidraw.com/Cascadia.woff2");
      }
    </style>
  </defs>
  <g><g transform="translate(505.5835569624644 124.36364729329944) rotate(0 -107.58801694782449 -56.73010351834819)"><path d="M0.05223173461854458 -1.1219382282346486 C-35.69590233679239 -20.293934080563485, -179.5223148626896 -95.42191076409071, -215.22826563026754 -114.36364729329944 M-1.379485334046185 0.9034402566030622 C-36.70545666165029 -18.180749295800926, -177.48537693400556 -94.02115525603294, -213.08342402912675 -113.17471862588077" stroke="#000000" stroke-width="1" fill="none"></path></g></g><g><g transform="translate(507.6803587202769 141.35635359212756) rotate(0 -111.68971425302334 -21.77740552840757)"><path d="M-0.43039136566221714 -1.0216118808835744 C-37.67273199701061 -8.415999020698175, -187.06053497164197 -37.33247273893408, -224.48666886165736 -44.61124899312856 M1.5445144380256535 1.0564379363134502 C-35.680364224662384 -6.151259999523564, -187.08237425605455 -35.856570617755274, -224.92394294407217 -43.308481238223635" stroke="#000000" stroke-width="1" fill="none"></path></g></g><g><g transform="translate(510.14990217730815 160.2518919222057) rotate(0 -116.47418852047991 7.701033503282815)"><path d="M1.0241433676332237 -1.175500976666808 C-37.980101374226315 1.3115999186411462, -194.09482338794817 12.305416338331979, -233.33546148613095 15.0488141544163 M0.1026799063012005 0.8217570652440189 C-39.06813064361612 3.5007372032105883, -194.71480468442041 13.928254326283913, -233.9725204085931 16.577567983232417" stroke="#000000" stroke-width="1" fill="none"></path></g></g><g><g transform="translate(512.7603758101206 177.79357893392444) rotate(0 -118.96170023597773 36.962990903425975)"><path d="M-0.3593973342329263 1.1312792424112559 C-40.21873005175342 13.216536109087368, -199.2509345528359 61.412521549748874, -239.03779832199214 73.24638490751386 M1.6527803359553217 0.6795968993380668 C-38.306638830949865 12.36185551767548, -199.39087148139873 59.4270428938667, -239.57618080791084 71.52540712591261" stroke="#000000" stroke-width="1" fill="none"></path></g></g><g><g transform="translate(514.4602049116831 194.56579573079944) rotate(0 -120.39765787042677 67.42341186998408)"><path d="M-0.4823706809431314 0.28486019410192975 C-40.63506933792184 22.79014758855725, -201.53682219156374 111.96678309443713, -241.7778917439282 134.32057932373132 M1.465245982222259 -0.6111921493336558 C-38.69251265014211 22.094023403643313, -201.63163216938574 112.79434364839764, -242.2605617230758 135.45801588930186" stroke="#000000" stroke-width="1" fill="none"></path></g></g><g><g transform="translate(273.73154008963456 12.669365609271608) rotate(0 -131.61168949276833 65.5428772195553)"><path d="M0.5081611040979623 -0.9553440872579813 C-43.27894737797376 21.003342490622572, -219.108688133329 109.8762393868425, -263.09091571024936 132.04109852636856 M-0.6841930455900729 1.1574963215924798 C-44.54586279754114 22.76912455379756, -219.84590841217695 108.91615911683895, -263.7315400896346 130.42168122035142" stroke="#000000" stroke-width="1" fill="none"></path></g></g><g><g transform="translate(275.74586978798527 94.56545664659802) rotate(0 -127.67411371959372 33.30322116278424)"><path d="M-0.7497591566294431 0.3757503401488065 C-43.36085381023585 11.643701636584272, -213.2487522434443 56.17033435747857, -256.00611192695794 67.07902700218064 M1.0574785568006337 -0.47258467661216863 C-41.59051871938632 10.508872035143693, -213.19824924333022 54.16065286583165, -256.4057059959881 65.39372084849205" stroke="#000000" stroke-width="1" fill="none"></path></g></g><g><g transform="translate(269.6397771230547 175.42561154026123) rotate(0 -122.67790388808896 0.6393219476684919)"><path d="M0.9625961791723967 -0.9198351692408323 C-40.02108008617328 -0.7432941609096758, -204.40333607614863 0.2319957750676907, -245.91454491900896 0.6834875738041206 M0.00882044389843939 1.2116474215686321 C-41.041086731271605 1.6159402976709374, -205.34760429360796 2.370870796182636, -246.31840395535028 2.163944342450957" stroke="#000000" stroke-width="1" fill="none"></path></g></g><g><g transform="translate(264.5787419668047 254.38818342611194) rotate(0 -118.43767728656326 -33.32262741753311)"><path d="M-0.33337764255702496 -0.472183870151639 C-40.01128630904412 -11.337783189380053, -197.9861776559579 -53.86342734825553, -237.62628152813346 -64.65380045593609 M1.6924603657610717 -1.765684347320348 C-38.180986663586694 -12.983597314415013, -198.4156149150024 -55.2593586852284, -238.56781493888752 -66.17307096491461" stroke="#000000" stroke-width="1" fill="none"></path></g></g><g><g transform="translate(268.4107325267006 332.631862896598) rotate(0 -124.1631396720258 -63.45808904466216)"><path d="M0.6550934482365847 -0.38416017182171347 C-40.57464690872089 -21.25859109448889, -206.97286042462068 -104.1338580080618, -248.56060897554786 -124.82182004339987 M-0.460121220778674 -1.6314482073672116 C-41.65656299410939 -22.879948883323607, -207.51256321729124 -105.75736300952107, -248.98137279228823 -126.53201791750261" stroke="#000000" stroke-width="1" fill="none"></path></g></g></svg>