<svg version="1.1" xmlns="http://www.w3.org/2000/svg" viewBox="0 0 1071.902099609375 318.2230224609375" width="2143.80419921875" height="636.446044921875">
  <!-- svg-source:excalidraw -->
  
  <defs>
    <style>
      @font-face {
        font-family: "Virgil";
        src: url("https://excalidraw.com/Virgil.woff2");
      }
      @font-face {
        font-family: "Cascadia";
        src: url("https://excalidraw.com/Cascadia.woff2");
      }
    </style>
  </defs>
  <g stroke-linecap="round" transform="translate(428.3505859375 97.4976806640625) rotate(0 128.4222412109375 53.252899169921875)"><path d="M-0.35 1.44 C52.18 -0.97, 105.79 -1.71, 258.02 1.11 M-0.42 -0.28 C82.76 -0.01, 164.48 -0.27, 257.01 0.17 M258.83 -1.73 C257.27 36.9, 255.37 75.97, 255.01 107.1 M257.46 0.29 C257.69 27.7, 257.42 57.72, 256.99 106.79 M256.31 105.03 C203.41 108.08, 149.61 108.15, 1.55 105.02 M257.28 106.42 C194.78 106.3, 132.47 107.25, 0.33 106.62 M-1.69 108.05 C-2.08 68.71, 0.39 29.31, -0.46 0.69 M-0.39 107.18 C0.56 75.12, 0.41 43.44, -0.81 0.62" stroke="#000000" stroke-width="1" fill="none"></path></g><g transform="translate(459.28070068359375 111.50439453125) rotate(0 99.5 37.5)"><text x="99.5" y="18" font-family="Virgil, Segoe UI Emoji" font-size="20px" fill="#000000" text-anchor="middle" style="white-space: pre;" direction="ltr">authentication proxy</text><text x="99.5" y="43" font-family="Virgil, Segoe UI Emoji" font-size="20px" fill="#000000" text-anchor="middle" style="white-space: pre;" direction="ltr"></text><text x="99.5" y="68" font-family="Virgil, Segoe UI Emoji" font-size="20px" fill="#000000" text-anchor="middle" style="white-space: pre;" direction="ltr">id: 42</text></g><g stroke-linecap="round" transform="translate(805.0576171875 97.74447631835938) rotate(0 128.4222412109375 53.252899169921875)"><path d="M-1.4 1.28 C94.77 -0.41, 186.59 -2.42, 256.79 1.5 M0.43 -0.39 C52.12 -0.95, 105.05 -0.53, 256.75 -0.41 M256.1 -0.27 C254.94 25.05, 256.38 52.19, 256.64 104.61 M257.4 -0.36 C256.4 37.86, 255.9 76.93, 256.34 106.71 M256.7 106.92 C188.16 105.55, 118.62 108.14, -0.18 108 M256.25 107.1 C195.74 106.78, 132.94 106.01, 0.03 106.46 M-1.9 107.87 C0.84 74.38, 0.39 44.33, 0.7 1.66 M-0.71 106.81 C-0.78 79.71, -1.13 52.86, -0.32 -0.03" stroke="#000000" stroke-width="1" fill="none"></path></g><g transform="translate(855.9877319335938 111.75119018554688) rotate(0 73.5 37.5)"><text x="73.5" y="18" font-family="Virgil, Segoe UI Emoji" font-size="20px" fill="#000000" text-anchor="middle" style="white-space: pre;" direction="ltr">backend server</text><text x="73.5" y="43" font-family="Virgil, Segoe UI Emoji" font-size="20px" fill="#000000" text-anchor="middle" style="white-space: pre;" direction="ltr"></text><text x="73.5" y="68" font-family="Virgil, Segoe UI Emoji" font-size="20px" fill="#000000" text-anchor="middle" style="white-space: pre;" direction="ltr">id: 666</text></g><g stroke-linecap="round"><g transform="translate(684.1456298828125 150.6314697265625) rotate(0 59.93625066335312 0.3135885418709847)"><path d="M0.25 0.66 C20.28 0.67, 100.92 -0.17, 120.95 -0.45 M-1.08 -0.03 C18.69 0.22, 99.13 1.08, 119.78 1.08" stroke="#000000" stroke-width="1" fill="none"></path></g><g transform="translate(684.1456298828125 150.6314697265625) rotate(0 59.93625066335312 0.3135885418709847)"><path d="M92.63 10.45 C101.8 5.87, 111.05 3.05, 118.77 1.49 M91.43 11.43 C99.07 7.52, 106.09 6.43, 119.66 2.01" stroke="#000000" stroke-width="1" fill="none"></path></g><g transform="translate(684.1456298828125 150.6314697265625) rotate(0 59.93625066335312 0.3135885418709847)"><path d="M92.76 -10.07 C101.79 -7.2, 111 -2.58, 118.77 1.49 M91.56 -9.09 C99.16 -7.51, 106.14 -3.12, 119.66 2.01" stroke="#000000" stroke-width="1" fill="none"></path></g></g><g transform="translate(14.32305908203125 18.17987060546875) rotate(0 157 137.5)"><text x="0" y="18" font-family="Virgil, Segoe UI Emoji" font-size="20px" fill="#000000" text-anchor="start" style="white-space: pre;" direction="ltr">  {</text><text x="0" y="43" font-family="Virgil, Segoe UI Emoji" font-size="20px" fill="#000000" text-anchor="start" style="white-space: pre;" direction="ltr">    "id": 42,</text><text x="0" y="68" font-family="Virgil, Segoe UI Emoji" font-size="20px" fill="#000000" text-anchor="start" style="white-space: pre;" direction="ltr">    "token": "xxxxxxxxxxxxx"</text><text x="0" y="93" font-family="Virgil, Segoe UI Emoji" font-size="20px" fill="#000000" text-anchor="start" style="white-space: pre;" direction="ltr">    "name": "jub0bs",</text><text x="0" y="118" font-family="Virgil, Segoe UI Emoji" font-size="20px" fill="#000000" text-anchor="start" style="white-space: pre;" direction="ltr">    "interests": [</text><text x="0" y="143" font-family="Virgil, Segoe UI Emoji" font-size="20px" fill="#000000" text-anchor="start" style="white-space: pre;" direction="ltr">      "security",</text><text x="0" y="168" font-family="Virgil, Segoe UI Emoji" font-size="20px" fill="#000000" text-anchor="start" style="white-space: pre;" direction="ltr">      "go",</text><text x="0" y="193" font-family="Virgil, Segoe UI Emoji" font-size="20px" fill="#000000" text-anchor="start" style="white-space: pre;" direction="ltr">      "trolling LREM on Twitter"</text><text x="0" y="218" font-family="Virgil, Segoe UI Emoji" font-size="20px" fill="#000000" text-anchor="start" style="white-space: pre;" direction="ltr">    ],</text><text x="0" y="243" font-family="Virgil, Segoe UI Emoji" font-size="20px" fill="#000000" text-anchor="start" style="white-space: pre;" direction="ltr">    "id": 666</text><text x="0" y="268" font-family="Virgil, Segoe UI Emoji" font-size="20px" fill="#000000" text-anchor="start" style="white-space: pre;" direction="ltr">  }</text></g><g stroke-linecap="round" transform="translate(10 10) rotate(0 171.73233032226562 149.11151123046875)"><path d="M0.31 1.31 C85.21 -1.79, 173.3 -1.8, 344.56 1.27 M0.43 0.05 C94.4 -1.28, 188.94 -0.98, 344.12 -0.42 M343.8 -0.47 C342.96 111.3, 341.62 220.41, 344.38 296.87 M342.76 -0.73 C341.33 108.28, 341.09 215.92, 342.83 297.68 M343.52 297.56 C231.63 294.96, 120.28 296.83, -0.74 297.77 M343.62 298.17 C240.09 298.04, 138.2 297.31, -0.28 297.77 M-0.03 297.32 C-3.08 189.42, -0.99 79.52, 0.41 -0.88 M-0.21 297.65 C1.64 197.74, 0.85 97.48, 0.37 -0.71" stroke="#000000" stroke-width="1" fill="none"></path></g><g stroke-linecap="round"><g transform="translate(353.15185546875 163.71295166015625) rotate(0 36.70692362794654 -0.952069379482424)"><path d="M-0.99 -1.15 C11.17 -1.65, 59.75 -2.78, 72.21 -2.76 M0.69 0.85 C13.29 0.47, 62.3 -1.03, 74.41 -1.65" stroke="#000000" stroke-width="1" fill="none"></path></g><g transform="translate(353.15185546875 163.71295166015625) rotate(0 36.70692362794654 -0.952069379482424)"><path d="M44.72 8.08 C51.79 8.26, 61.26 6.01, 75.67 -3.04 M46.59 9.65 C54.26 7.16, 60.75 4.69, 74.07 -2.16" stroke="#000000" stroke-width="1" fill="none"></path></g><g transform="translate(353.15185546875 163.71295166015625) rotate(0 36.70692362794654 -0.952069379482424)"><path d="M43.91 -12.42 C51.22 -7.42, 60.88 -4.85, 75.67 -3.04 M45.79 -10.85 C53.66 -8, 60.36 -5.12, 74.07 -2.16" stroke="#000000" stroke-width="1" fill="none"></path></g></g></svg>