<svg version="1.1" xmlns="http://www.w3.org/2000/svg" viewBox="0 0 920.5267028808594 344.8841552734375" width="1841.0534057617188" height="689.768310546875" filter="invert(93%) hue-rotate(180deg)">
  <!-- svg-source:excalidraw -->
  
  <defs>
    <style class="style-fonts">
      @font-face {
        font-family: "Virgil";
        src: url("https://excalidraw.com/Virgil.woff2");
      }
      @font-face {
        font-family: "Cascadia";
        src: url("https://excalidraw.com/Cascadia.woff2");
      }
    </style>
  </defs>
  <g stroke-linecap="round" transform="translate(342.0392150878906 10) rotate(0 62.500335693359375 135.30596923828125)"><path d="M0 0 C0 0, 0 0, 0 0 M0 0 C0 0, 0 0, 0 0 M0.53 7.19 C1.82 4.28, 4.04 2.77, 4.87 0.07 M-0.39 6.72 C0.83 5.21, 1.7 4.11, 5.17 0.61 M1.58 13.38 C1.94 7.8, 5.85 4.97, 9.3 -1.56 M0.88 12.48 C4.14 7.59, 8.97 3.09, 11.16 0.27 M1.11 16.64 C6.35 12.76, 12.02 5.27, 14.75 0.9 M0.32 18.15 C3.73 14.52, 8.61 10.14, 15.08 -0.54 M-0.95 24.37 C5.92 15.39, 15.14 8.02, 19.47 0.4 M-0.26 24.38 C7.26 15.03, 14.5 6.92, 22.01 -0.14 M0.48 29.25 C10.04 18.91, 22.11 7.44, 25.67 1.66 M-0.57 30.77 C7.86 19.81, 17.85 11.67, 26.71 0.21 M-2.12 37.15 C11.5 26.01, 22.45 11.41, 32.61 -1.66 M0.52 37.72 C8.98 26.55, 17.28 17.32, 31.34 -0.55 M-0.23 43.56 C15.08 27.5, 25.99 9.51, 37.19 0.46 M0.06 41.86 C7.02 33.15, 16.43 25.03, 37.23 -0.08 M-1 49.56 C10.22 35.57, 21.73 24.63, 41.48 -1.9 M-0.08 49.53 C10.73 35.06, 22.68 23.37, 43.03 0.47 M-0.45 54.29 C11.78 41.81, 20.37 32.19, 45.69 1.19 M0.24 54.52 C14.69 37.22, 30.18 18.97, 48.27 -0.4 M1.61 62.75 C19.33 42.99, 32.97 21.52, 51.74 -0.75 M-0.88 61.32 C18.87 40.04, 36.8 17, 53.54 0.57 M0.34 66.28 C20.32 45.19, 36.18 24.22, 56.17 1.14 M0.02 66.9 C18.76 46.35, 36.64 24.62, 58.1 0.56 M-1.78 74.52 C25.9 45.21, 49.66 16.12, 65.71 -1.21 M0.68 72.15 C20.27 49.36, 40.48 25.99, 64.01 -0.27 M1.28 79.49 C23.28 52.15, 48.97 24.42, 70.26 -1.03 M0.08 79.22 C18.94 58.72, 37.08 36.93, 69.73 0.42 M1.97 84.01 C14.24 68.74, 31.91 48.9, 74.35 -0.96 M-0.17 85.4 C17.26 65.48, 33.33 46.11, 74.27 0.22 M0.15 89.52 C20.04 67.79, 38.76 45.35, 78.2 -1.31 M-0.14 92.26 C23.75 66.42, 46.08 39.29, 78.81 -0.87 M-2.06 96.51 C17.85 77.64, 35.28 56.58, 85.2 -0.29 M-0.17 97.5 C29.44 63.46, 57.83 30.8, 84.83 0.64 M0.01 104.58 C33.74 61.86, 72.63 22.99, 90.88 1.72 M0.11 104.36 C27.78 72.13, 55.5 40.11, 89.72 0.93 M1.83 108.41 C27.24 76.79, 59.1 43.03, 94.46 -2.08 M0.61 108.97 C34.11 71.33, 68.99 32.16, 94.9 -0.09 M0.55 114.26 C27.85 81.36, 57.5 50.61, 99.8 -1.16 M0.3 116.2 C32.68 79.66, 62.92 44.16, 101.48 0.39 M-0.03 123.75 C18.35 97, 41.81 75.07, 106.94 0.11 M0.8 122.85 C25.43 93.83, 49.3 66.52, 106.36 -0.77 M1.43 130.3 C29.45 96.61, 58.27 63.18, 113.08 -1.8 M-0.1 127.48 C31.55 90.8, 65.85 53.35, 111.84 0.39 M0.01 135.18 C41.02 87.58, 83.31 40.31, 115.43 -1.11 M0.39 133.78 C37.8 91.82, 76.84 47.77, 117.13 0.89 M0.9 139.51 C40.15 94.44, 80.09 46.48, 123.48 1.32 M-0.95 139.98 C35.2 99.15, 70.83 57.54, 121.22 0.11 M2.19 144.72 C33.14 109.45, 67.49 73.08, 126.64 2.72 M0.05 146.69 C31.24 110.09, 59.54 75.89, 127.15 1.99 M-0.13 152.37 C46.64 101.32, 90.29 47.6, 125.81 6.67 M0.61 152.05 C47.63 98.67, 93.37 44.66, 126.17 6.61 M-1.28 160.55 C37.46 118.89, 70.53 77.31, 125.44 13.51 M0.47 159.6 C26.25 129.38, 53.63 98.72, 126.5 14 M0.54 163.97 C43.64 116.08, 84.94 72.06, 124.7 19.49 M0.79 163.61 C30.55 130.89, 60.33 95.22, 127.1 18.66 M0.44 169.93 C28.28 137.63, 58.69 100.46, 124.96 23.91 M-0.97 170.54 C37.94 129.49, 72.65 86.53, 125.69 26.08 M1.71 174.79 C26.35 141.93, 54.6 110.15, 126.72 32.92 M0.47 176.86 C24.57 146.32, 51.33 116.8, 126.44 31.89 M0.79 183.76 C30.65 148.16, 59.81 111.29, 124.49 36.01 M-0.21 182.17 C46.56 128.49, 94.84 73.92, 125.38 37.75 M-1.84 187.4 C41.87 140.13, 86.55 88.53, 127.1 41.99 M0.58 189.1 C30.37 154.2, 60.64 120.3, 127.35 42.71 M-1.45 193.59 C35.19 155.5, 67 115.87, 125.92 51.02 M0.18 194.66 C49.23 139.89, 99.83 81.73, 126.89 50.6 M-0.72 199.54 C32.81 165.43, 62.72 130.15, 125.74 55.1 M0.68 201.65 C42.23 153.36, 81.66 106.15, 125.7 55.89 M1.08 208.3 C43.83 154.25, 88.86 104.4, 125.77 61.79 M0.31 206.51 C38.96 164.24, 76.48 120.02, 126.27 62.81 M1.1 212.53 C44.31 162.78, 85.69 117.43, 126.48 66.78 M-0.91 212.45 C37.65 172.23, 73.82 128.76, 125.37 69.24 M-0.27 218.94 C52.09 163.87, 99.51 102.46, 125.86 73.79 M0.31 219.3 C38.41 175.87, 74.81 134.68, 126.91 74.07 M0.93 224.34 C41.9 177.68, 82.42 131.28, 127.75 78.68 M-0.57 224.94 C51.5 167.58, 100.88 111.6, 126.91 80.62 M0.44 231.65 C47.29 174.88, 96.69 117.68, 124.63 85.85 M-1.02 232.64 C46.1 176.86, 92.92 122.42, 126.9 86.44 M0.71 238.33 C46.99 183.24, 94.34 128.74, 126.66 92.08 M0.03 236.92 C41.05 190.36, 80.72 145.57, 125.58 92.49 M-0.19 244.21 C43.11 190.65, 89.74 139.87, 124.49 98.95 M-0.16 244.72 C24.74 215.15, 48.81 185.02, 126.32 99 M-1.65 251.96 C37.38 205.42, 77.93 159.3, 125.57 104.89 M-0.74 251.23 C45.52 197.25, 93.08 143.29, 126 104.84 M-0.29 255.04 C28.14 221.14, 54.86 191.99, 126.43 109.17 M-0.26 255.29 C30.96 217.08, 63.82 179.43, 125.96 110.91 M-1.65 261.8 C26.86 231.27, 54.85 199.35, 127.5 116.39 M0.13 262.77 C37.16 219.79, 76.34 175.53, 127.46 115.99 M-1.36 267.9 C47.28 213.38, 94.83 158.93, 126.12 124.24 M0.23 268.42 C30.37 232.29, 62.63 194.18, 125.3 123.89 M1.84 273.83 C36.39 233.26, 70.67 192.63, 127.4 127.98 M2.33 272.76 C38.5 230.4, 73.59 189.37, 125.29 129.31 M6.3 272.41 C35.62 234.92, 67.89 198.78, 124.5 136.48 M6.1 272.94 C48.08 226.96, 87.84 180.06, 127.16 135.22 M11.82 273.33 C49.43 229.48, 85.96 186.55, 126.86 140.19 M13.51 272.67 C50.92 226.03, 91.66 180.94, 125.46 142.24 M15.81 274.11 C62.32 222.46, 104.99 171.82, 127.12 147.63 M17.66 272.55 C45.77 237.94, 76.26 205.29, 127.05 146.49 M24.82 272.33 C50.53 242.16, 73.56 211.19, 126.08 153.18 M22.91 271.66 C54.24 235.95, 86.74 198.08, 126.69 152.78 M27.6 273.44 C64.28 228.21, 101.75 185.63, 127.53 161.52 M28.56 272.78 C56.37 243.06, 81.93 211.23, 126.53 160.38 M34.54 270.43 C54.93 245.02, 80.17 216.93, 126.57 163.71 M32.96 271.4 C58.21 243.92, 82.68 217.52, 127.01 166.49 M38.69 271.67 C62.1 246.21, 83.32 219.13, 125.85 173.12 M39.12 272.95 C72.81 235.55, 106.82 196.32, 125.79 171.58 M43.28 272.58 C70.88 237.5, 103.44 204.52, 126.45 177.96 M44.83 271.85 C67.5 244.62, 89.77 217.45, 127.17 177.25 M50.7 271.46 C77.32 241.11, 105.12 209.87, 124.86 185.02 M50.31 272.68 C70.57 249.71, 89.14 226.99, 125.76 183.39 M53.99 273.14 C75.57 249.78, 92.34 227.03, 127.83 192.19 M54.32 271.29 C78.75 245.38, 101.66 217.82, 125.92 190.01 M61.88 272.84 C80.35 250, 97.55 227.08, 124.64 196.44 M59.8 271.91 C72.98 257.08, 86.81 240.59, 126.69 196.65 M65.58 272.58 C87.35 245.58, 110.67 217.3, 127.39 201.82 M65.3 273.07 C85.78 248.11, 108.69 222.81, 126.69 201.75 M71.11 273.21 C87 251.38, 106.66 230.94, 125.86 207.96 M69.95 272.9 C90.91 250.21, 111.33 226.81, 125.55 208.52 M75.54 274.47 C92.99 253.05, 112.66 230.66, 124.47 213.86 M76.29 272.59 C94.94 250.91, 113.48 230.81, 125.61 214.05 M81.89 271.36 C95.35 253.38, 110.49 237.53, 125.18 222.32 M81.81 272.2 C93.59 257.89, 107.06 243.76, 125.32 221.21 M88.04 274.03 C95.09 260.82, 106.66 247.56, 127.71 227.98 M86.52 271.82 C100.88 254.92, 117.17 236.68, 126.17 226.02 M90.34 271.43 C104.12 255.61, 121.61 239.63, 125.87 233.34 M91.11 272.69 C104.58 258.44, 116.5 244.11, 125.63 233.02 M96.52 271.12 C105.62 259.89, 115.29 250.32, 126.36 237.21 M96.56 272.3 C105.31 263.22, 113.56 254.54, 126.55 239.12 M101.23 270.96 C111.68 263.01, 120.41 251.75, 125.81 246.5 M102.27 271.56 C107.24 265.64, 112.4 260.85, 126.84 244.78 M107.03 270.94 C116.27 262.37, 122.53 254.9, 125.63 252.7 M107.68 271.87 C113.13 266.55, 119.59 258.2, 126.93 251.83 M111.92 272.85 C118.31 267.39, 122.37 260.68, 128.22 255.88 M112.4 272.31 C116.99 267.43, 122.51 262.2, 126.66 256.89 M118.28 272.23 C120.09 268.15, 124.36 264.55, 125.67 264.18 M118.01 272.59 C120.84 269.9, 121.91 268.23, 126.18 262.98" stroke="#868e96" stroke-width="0.5" fill="none"></path><path d="M1.96 0.27 C33.89 2.16, 69.13 3, 126.33 -0.99 M0.63 0.32 C39.57 -0.24, 78.4 1.2, 125.69 -0.52 M124.05 0.1 C124.88 85.19, 124.88 167.46, 124.59 270.59 M125.69 0.41 C122.93 67.66, 122.52 134.94, 125.09 270.04 M126.08 269.86 C99.43 268.77, 73.73 270.53, 1.39 268.76 M125.97 269.82 C94.67 270.3, 65.61 269.97, 0.68 270.34 M-0.47 269.17 C-0.99 201.15, -1.51 129.16, 1.55 0.27 M0.37 269.94 C0.36 202.54, 0.67 132.72, -0.64 0.02" stroke="#495057" stroke-width="1" fill="none"></path></g><g stroke-linecap="round" transform="translate(341.7033386230469 10.52740478515625) rotate(0 62.189544677734375 9.15533447265625)"><path d="M-0.24 -0.14 L125.48 -1.68 L123.29 20.19 L0.69 19.16" stroke="none" stroke-width="0" fill="#868e96"></path><path d="M-1.1 0.89 C43.24 0.93, 87.16 -1.24, 123.8 -1.25 M-0.1 0.75 C35.81 0.65, 73.85 0.49, 123.53 0.76 M123.14 1.31 C124.85 3.88, 124.48 7.19, 122.99 18.18 M124.68 -0.53 C124.11 4.42, 124.17 10.84, 123.82 18.79 M125.9 17.2 C77.39 15.39, 26.68 15.69, -0.25 17.86 M125.09 19 C95.8 19.13, 66.21 18.34, -0.78 18.79 M-0.34 19.01 C-1.56 15.96, 0.31 10.88, 0.61 -1.27 M0.53 17.46 C0.47 10.43, -0.21 5, 0.85 0.05" stroke="#495057" stroke-width="1" fill="none"></path></g><g stroke-linecap="round" transform="translate(10.124420166015625 22.2745361328125) rotate(0 139.8876953125 56.045074462890625)"><path d="M0 0 C0 0, 0 0, 0 0 M0 0 C0 0, 0 0, 0 0 M-0.98 6.83 C1.79 4.81, 3.12 1.87, 5.22 -0.01 M-0.38 6.28 C1.15 5.3, 2.37 3.55, 4.64 0.4 M0.37 11.35 C2.39 9.89, 5.69 3.32, 11.01 0.78 M0.37 11.87 C3.49 7.41, 7.61 3.89, 10.57 0.76 M-1.36 17.85 C4.2 14.89, 8.71 8.8, 16.99 0.81 M0.17 17.59 C2.7 14.91, 8.05 10.48, 15.53 0.64 M0.54 24.91 C6.37 19.94, 8.78 14.08, 19.71 -0.81 M1.11 24.62 C4.64 18.62, 10.08 12, 20.81 0.74 M1.04 31.61 C10.21 18.08, 17.46 9.9, 26.45 -1.52 M-0.65 29.68 C7.49 22.25, 16.19 12.51, 25.91 -0.07 M0.38 35.97 C9.06 25.23, 20.75 13.69, 30.12 -0.72 M0.35 36.71 C11.8 22.52, 26.07 8.08, 32.5 -0.87 M-0.13 43.29 C9.37 30.11, 21.75 18.2, 37.85 0.77 M0.1 41.93 C14.1 26.36, 27.19 11.92, 36.25 0.48 M1.67 50.67 C11.31 35.7, 19.22 24.86, 41.95 0.89 M0.23 48.99 C12.41 34.88, 22.79 22.2, 43.26 0.11 M-0.81 56 C12.89 37.84, 26.7 22.6, 48.46 0.63 M-0.19 54.56 C12.79 39.83, 24.55 26.83, 47.88 1.11 M1.53 62.21 C18.32 41.43, 35.35 22.79, 52.14 0.26 M-0.84 61.27 C20.58 36.95, 41.43 13.34, 53.08 0.34 M-0.16 66.26 C15.6 49.79, 30.96 33.33, 56.95 -0.39 M-0.43 67.26 C14.42 50.65, 27.97 36.28, 58.4 -0.66 M-0.89 71.64 C26.1 45.31, 48.52 17.41, 63.06 -1.73 M0.5 73.33 C18.31 51.64, 36.67 30.26, 64.24 -0.82 M-2.04 80.92 C22.37 52.66, 46.07 22.24, 67.34 -0.1 M0.7 80.11 C20.22 57.74, 38.44 34.96, 67.78 -0.63 M-1.05 84.67 C27.66 54.15, 54.19 26.52, 74.4 0.43 M-0.06 85.62 C15.71 65.84, 32.85 45.43, 75.33 0.69 M1.11 89.76 C23.28 65.48, 49.31 36.56, 81.04 0.33 M0.9 92.18 C32.24 55.83, 63.77 18.76, 80.25 0.1 M-1.71 96.35 C22.65 72.21, 44.87 42.52, 83.27 0.85 M-1.16 98.02 C26.93 67.72, 53.48 35.6, 85.26 -0.41 M-1.11 102.38 C26.62 71.43, 56.53 39.03, 88.82 0.32 M0.82 104.44 C26.04 73.74, 52.29 45.01, 90.37 -0.91 M1.72 108.11 C37.74 66.28, 78.57 22.52, 96.13 -1.7 M0.82 110.87 C29.51 75.57, 59.86 41.39, 95.24 -0.7 M3.57 115.55 C40.66 71.57, 77.99 29.27, 98.84 -0.06 M0.75 113.05 C32.53 79.12, 63.51 43.99, 101.03 0.61 M8.45 111.99 C29.84 88.35, 51.57 63.6, 104.82 0.15 M7.05 113.12 C35.08 83.6, 61.04 53.03, 106.82 -0.06 M11.37 115.07 C48.36 73.1, 82.41 32.33, 112.63 -0.11 M11.85 113.32 C41.31 80.52, 70 47.29, 111.42 -0.38 M16.59 112.68 C42.33 86.42, 67.07 59.34, 117.9 -0.84 M18.56 114.51 C46.88 78.19, 77.52 45.26, 117.17 1.05 M22.82 115.02 C59.43 72.75, 93.46 34.33, 121.09 1.48 M22.51 114.87 C56.83 74.36, 90.57 36.65, 121.03 -0.24 M30.25 114.79 C49.68 89.48, 69.17 65.61, 127.28 -1.56 M29.3 112.71 C49.03 90.25, 68.39 66.56, 127.77 0.6 M33.02 115.52 C56.79 87.44, 84.46 56.12, 132.5 -1.36 M32.65 113.41 C54.68 89.21, 73.7 66.69, 131.68 -0.66 M38.22 111.75 C71.53 76.22, 99.97 41.01, 136.27 0 M38.84 114.27 C60.44 89.5, 80.07 64.94, 138.43 -0.47 M42.42 113.32 C81.51 67.27, 121.6 22.54, 144.53 -2.06 M44.49 113.38 C77.21 75.47, 110.89 35.68, 143.49 -0.61 M50.64 113.62 C85.74 71.11, 119.64 31.52, 146.2 1.72 M49.05 112.48 C74.61 85.12, 99.17 55.12, 147.94 0.7 M52.87 113.81 C93.39 72.24, 129.65 27.95, 152.18 -1.42 M54.57 113.89 C78.21 85.68, 102.82 58.16, 152.9 -0.39 M59.05 115.09 C97.51 70.76, 134.45 29.1, 159.81 2.09 M60.13 113.29 C93.47 78.37, 123.54 42.16, 159.39 -0.37 M63.59 114.97 C84.68 91.56, 104.55 66.78, 163.88 0.36 M65.71 114.72 C93.49 79.33, 122.23 46.6, 164.67 0.39 M72.36 111.48 C94.3 83.3, 120.33 56.29, 169.17 0.26 M70.57 113.33 C97.51 83.43, 122.61 54.88, 170.18 0.58 M75.17 115.45 C104.08 79.57, 137.41 45.43, 173.39 -0.28 M75.09 114.36 C108.72 78.48, 139.15 42.58, 175.85 0.81 M80.83 114.73 C111.13 80.22, 135.19 50.19, 179.75 -0.04 M81.19 113.93 C100.13 90.06, 121.19 67.23, 180.03 0.47 M85.58 114.49 C120.15 74.53, 155.05 37.85, 183.88 1.73 M86.17 113.98 C109.52 87.38, 134.31 62.04, 185.83 0.62 M92.13 113.41 C130.27 69.15, 167.93 21.8, 190.4 1.58 M93.12 113.1 C125.98 74.18, 160.13 35.58, 190.99 0.89 M98.16 111.97 C119.25 86.69, 141 63.58, 195.88 0.08 M96.74 113.45 C118.64 87.62, 142.25 61.65, 196.29 0.29 M102.63 113.45 C136.9 73.58, 173.96 28.77, 201.34 -1.88 M103.13 114.31 C138.19 72.45, 172.67 32.89, 201.39 0.14 M109.62 112.39 C135.03 83.41, 160.8 50.2, 207.28 1.08 M108.89 113.3 C142.36 75.73, 175.97 35.95, 207.23 -1.06 M112.04 115.16 C149.67 69.06, 191.93 24.84, 210.15 -0.8 M112.29 113.43 C147.48 72.87, 183.11 31.21, 211.88 -0.78 M118.05 112.88 C145.96 83.26, 172.45 53.23, 217.36 -0.32 M119.02 112.77 C148.97 80.04, 177.73 47.04, 216.96 0.42 M123.49 113.73 C153.02 80.74, 182.58 46.38, 223.8 -0.93 M124.01 113.3 C160.93 71.86, 195.87 29.06, 223.45 -0.21 M130.93 115.18 C169.26 69.92, 207.46 24.23, 226.79 -0.57 M129.86 113.78 C155.98 81.42, 183.4 50.15, 228.12 -0.77 M134.14 112.24 C166.55 74.5, 200.27 33.63, 234.64 0.62 M134.67 114.67 C158.12 88.26, 180.65 60.58, 233.37 0.2 M141.1 113.69 C166.8 82.39, 193.41 51.06, 236.93 1.28 M140.44 112.95 C171.66 75.97, 204.43 36.94, 238.98 1.33 M146.5 114.37 C166.65 89.32, 187.81 64.75, 244.37 -0.65 M144.94 113.01 C175.91 77.52, 208.83 41.14, 243.23 -0.49 M150.76 115.39 C187.82 68.77, 224.13 27.4, 248.51 0.54 M150.1 113.55 C189.82 69.99, 227.39 25.52, 248.11 1.1 M156.49 112.43 C178.56 84.6, 203.4 58.39, 256.1 -0.63 M155.84 114.45 C178.36 88.39, 198.61 64.73, 254.95 -0.55 M159.52 111.92 C197.68 71.39, 233.05 29.18, 257.63 -0.6 M160.5 113.59 C184.54 87.34, 209.69 59.03, 260.41 -0.13 M165.39 115.36 C204.15 70.02, 241.35 25.5, 266.29 1.45 M166.67 113.81 C187.46 91.43, 206.32 66.93, 264.75 0.44 M172.34 111.52 C209.04 71.85, 247.56 26.49, 270.47 -0.08 M171.61 113.73 C206.11 71.92, 240.92 32.73, 269.76 0.91 M175.85 112.73 C199.06 87.64, 221.19 63.42, 276.78 -1.03 M177.07 114.62 C198.92 86.96, 221.21 60.83, 275.14 -0.41 M183.57 115.08 C218.51 71.16, 254.45 31.93, 282.54 0.8 M181.71 113.32 C207.39 84.99, 231.65 56.65, 280.35 0.17 M187.89 114.73 C219.65 74.66, 251.32 37.48, 280.88 4.7 M186.96 113.08 C215.47 81.44, 242.59 49.88, 281.09 7.48 M192.91 112.1 C219.97 81.03, 245.41 53.16, 279.6 14.17 M193.4 112.42 C222.71 79.88, 251.64 46.85, 279.53 13.12 M198.93 112.17 C216.02 92.6, 234.44 69.44, 280.5 19.78 M198.61 114.06 C224.54 85.95, 249.52 54.74, 281.05 19.08 M205.47 112.7 C219.23 97.2, 232.35 75.75, 279.73 26.4 M203.59 113.75 C223.56 90.07, 245.04 65.76, 279.92 25.5 M207.74 112.49 C232.36 83.47, 259.08 55.49, 282.19 30.18 M208.58 113.17 C222.76 97.42, 237.21 79.31, 281.08 30.3 M215.04 112.39 C234.5 89.25, 253.85 67.37, 281.95 38.8 M212.83 113.5 C239.28 85.04, 264.21 55.27, 279.99 38.09 M218.48 111.76 C230.64 102.03, 242.6 85.65, 280.65 44.51 M219.73 114.64 C243.92 87.15, 267.71 57.72, 280.32 43.74 M222.79 113.03 C239.12 94.08, 257.24 75.64, 279.26 48.57 M223.97 114.26 C240.13 96.12, 256.89 77, 281.17 49.57 M228.67 114.66 C247.25 95.91, 262.46 74.09, 281.89 53.78 M229.27 113.45 C248.78 91.08, 269.5 68.99, 280.17 56.43 M233.28 115.4 C245.55 100.31, 258.77 85.09, 282.09 61.5 M234.21 113.59 C247.19 100.53, 257.42 87.52, 281.23 61.35 M241.23 114.51 C253.54 99.45, 264.86 85.21, 279.37 67.87 M240.68 113.22 C253.88 99.58, 266.78 83.43, 280.38 68.37 M245.1 112.1 C257.22 99.31, 269.94 83.3, 281.55 72.81 M245.7 114.96 C252.98 104.23, 262.1 95.17, 279.56 74.25 M252.42 113.25 C260.62 99.97, 272.58 86.08, 280.54 80.53 M251.79 114.29 C258.58 104.99, 266.17 97.28, 279.68 79.48 M254.21 112.39 C265.97 103.11, 272.38 94.86, 280.11 84.05 M256.9 114.54 C260.99 106.53, 266.72 100.35, 279.85 85.53 M259.91 113.45 C267.26 108.46, 272.52 101.3, 282.24 90.14 M260.72 113.67 C267.09 107.14, 271.34 102.04, 281.08 92.36 M265.96 114.16 C269.78 109.93, 274.28 104.33, 279.63 99.65 M266.6 113.2 C271.18 109.28, 275.62 104.01, 280.14 97.39 M271.37 113.98 C275.06 112.25, 275.83 109.96, 281.31 104.45 M272.08 113.24 C275.01 111.03, 276.53 108.46, 279.66 104.82 M277.75 113.38 C277.79 113.02, 279.01 111.53, 280.46 110.56 M277.46 114.02 C278.12 112.83, 279.11 112, 280.81 110.07" stroke="#868e96" stroke-width="0.5" fill="none"></path><path d="M-0.58 0.61 C99.68 -0.02, 202.08 -0.09, 278.35 -0.98 M-0.61 -0.62 C57.03 -2.36, 113.24 -1.57, 279.56 -0.3 M277.93 -0.21 C280.61 37.13, 278.95 77.98, 280.12 111.16 M278.91 -0.12 C279.41 31.54, 277.91 61.69, 279.81 112.02 M278.81 113.15 C197.92 112.86, 117.49 113.22, -1.17 111.18 M279.36 111.92 C193.2 113.21, 107.42 113.68, -0.09 112.59 M1.98 112.39 C0.72 87.39, 2.46 60.27, -0.72 -1.7 M0.82 112.09 C0.09 70.24, 0.59 30.12, 0.63 -0.43" stroke="#495057" stroke-width="1" fill="none"></path></g><g stroke-linecap="round" transform="translate(10 10) rotate(0 139.58502197265625 9.38812255859375)"><path d="M-0.31 -1.71 L280.47 -1.73 L278.59 20.3 L1.86 17.65" stroke="none" stroke-width="0" fill="#868e96"></path><path d="M-0.37 1.06 C68.2 -2.07, 132.15 -1.37, 280.55 1.37 M-0.06 -0.01 C102.9 2.25, 204.4 2.05, 279.1 -0.32 M280.27 -0.64 C280.98 7.36, 278.2 15.01, 279.51 17.11 M278.68 0.82 C279.58 5.51, 278.61 10.18, 278.73 18.95 M280.26 20.01 C220.69 17.75, 165.72 16.5, 0.19 20.11 M279.32 18.6 C188.7 17.53, 97.69 18.78, -0.54 18.76 M1.19 17.22 C-0.76 16.23, -0.37 8.71, 1.84 -1.63 M0.25 18.35 C-0.85 15.08, -0.81 9.52, -0.73 -0.6" stroke="#495057" stroke-width="1" fill="none"></path></g><g stroke-linecap="round" transform="translate(551.1363525390625 12.027923583984375) rotate(0 11.89129638671875 9.802200317382812)"><path d="M-1.31 0.3 L22.34 -0.2 L22.97 20.52 L1.21 18.91" stroke="none" stroke-width="0" fill="#868e96"></path><path d="M0.53 -1.52 C10.13 1.69, 16.06 -0.75, 24.91 -1.29 M-0.9 -0.43 C7.37 0.92, 13.02 -0.62, 23.19 -0.41 M23.66 -1.65 C23.07 6.08, 22.08 11.11, 23.04 20.19 M23.67 0 C23.75 5.13, 24 12.1, 22.94 19.99 M22.53 21.1 C15.98 20.54, 6.52 19.81, -0.26 19.84 M24.39 19.13 C17.26 19.46, 9.27 20.09, -0.69 20.35 M1.71 19.13 C2.1 15.38, 0 10.3, 1.55 1.35 M-0.7 19.5 C-0.26 12.23, 0.31 5.27, 0.18 -0.15" stroke="#495057" stroke-width="1" fill="none"></path></g><g stroke-linecap="round" transform="translate(550.8877258300781 49.88798522949219) rotate(0 11.89129638671875 11.398574829101562)"><path d="M0 0 C0 0, 0 0, 0 0 M0 0 C0 0, 0 0, 0 0 M-0.99 6.04 C1.02 4.55, 2.34 2.16, 5.06 -0.25 M0.12 6.23 C2.14 4.11, 3.81 1.5, 5.29 0.38 M1.09 13.29 C1.87 7.76, 7.02 5.66, 10.57 1.36 M-0.15 12.48 C5.05 6.58, 8.04 2.74, 9.86 -0.69 M0.25 18.11 C7.06 13.28, 12.41 4.68, 16.15 0.58 M-0.45 19.1 C2.65 13.69, 7.72 9.64, 15.07 0.72 M1.97 22.44 C3.92 19.16, 11.64 13.52, 22.87 0.74 M0.34 23.05 C7.2 17.87, 11.53 11.13, 22.09 0.32 M7.73 24.27 C9.99 18.85, 14.25 10.76, 25.38 2.49 M5.55 23.64 C11.25 18.02, 16.58 12.74, 26.06 1.18 M11.98 21.38 C14.71 21.21, 17.12 15.56, 23.91 9.22 M12.19 24.15 C15.17 18.31, 18.91 15.04, 24.68 7.22 M16.15 24.41 C18.96 21.28, 20.65 19.82, 23.81 14.6 M16.11 23.72 C18.68 20.45, 21.89 17.85, 24.55 13.52 M22.16 23.54 C23.36 21.7, 24 21.08, 25.62 19.75 M22.3 23.37 C23.21 22.06, 24.69 20.61, 25.38 19.59" stroke="#868e96" stroke-width="0.5" fill="none"></path><path d="M1.43 0.63 C5.47 0.88, 11.48 1.28, 25.22 0.88 M0.16 0.21 C9.15 0.72, 18.27 0.48, 23.84 0.19 M22.52 0.93 C24.34 8.25, 25.45 15.52, 22.55 22.56 M24.57 0.97 C23.01 8.96, 22.88 18.22, 24 22.89 M24.32 22.18 C17.28 22.92, 9.98 23.21, -1.82 21.45 M23.18 22.35 C16.79 23.35, 9.05 23.09, 0.93 23.23 M-0.32 23.02 C1.82 17.54, -0.75 11.69, 0.05 1.6 M-0.72 23.58 C-0.44 15.63, -0.28 7.42, -0.73 -0.43" stroke="#495057" stroke-width="1" fill="none"></path></g><g transform="translate(592.5267028808594 10) rotate(0 159 11.5)"><text x="0" y="19" font-family="Helvetica, Segoe UI Emoji" font-size="20px" fill="#495057" text-anchor="start" style="white-space: pre;" direction="ltr">interface (width); narrower is better</text></g><g transform="translate(592.5267028808594 47.34130859375) rotate(0 152 11.5)"><text x="0" y="19" font-family="Helvetica, Segoe UI Emoji" font-size="20px" fill="#495057" text-anchor="start" style="white-space: pre;" direction="ltr">functionality (area); larger is better</text></g><g transform="translate(85.94990539550781 166.8841552734375) rotate(0 64 11.5)"><text x="0" y="19" font-family="Helvetica, Segoe UI Emoji" font-size="20px" fill="#495057" text-anchor="start" style="white-space: pre;" direction="ltr">shallow library</text></g><g transform="translate(351.3716125488281 311.8841552734375) rotate(0 53 11.5)"><text x="0" y="19" font-family="Helvetica, Segoe UI Emoji" font-size="20px" fill="#495057" text-anchor="start" style="white-space: pre;" direction="ltr">deep library</text></g></svg>
